<svg width="27" height="24" viewBox="0 0 27 24" fill="none" xmlns="http://www.w3.org/2000/svg">
<g clip-path="url(#clip0_17012_5315)">
<mask id="mask0_17012_5315" style="mask-type:luminance" maskUnits="userSpaceOnUse" x="0" y="0" width="27" height="24">
<path d="M26.4645 0H0V24H26.4645V0Z" fill="white"/>
</mask>
<g mask="url(#mask0_17012_5315)">
<path d="M26.4645 14.0107C26.3048 14.4205 26.0094 14.7633 25.6277 14.9818C24.5945 15.6825 23.5741 16.4015 22.5508 17.1168C22.3555 17.2533 22.1643 17.3175 21.9669 17.1369C21.9225 17.0926 21.8893 17.0385 21.8702 16.9788C21.851 16.9192 21.8465 16.8558 21.8568 16.794C21.8672 16.7322 21.8922 16.6738 21.9297 16.6237C21.9673 16.5736 22.0163 16.5332 22.0727 16.5059C22.8483 15.9623 23.6256 15.4211 24.4044 14.8822C24.7365 14.6512 25.0693 14.4209 25.4003 14.1888C25.6759 13.995 25.7521 13.7873 25.6368 13.5592C25.5215 13.3311 25.3167 13.2673 24.989 13.368C22.5871 14.0959 20.1843 14.8232 17.7805 15.5497C16.5615 15.9146 15.3408 16.2759 14.1145 16.6164C13.5752 16.7502 13.0984 17.0655 12.7642 17.5095C12.6883 17.6141 12.6049 17.713 12.5146 17.8054C12.4825 17.8437 12.4428 17.875 12.3981 17.8973C12.3535 17.9196 12.3047 17.9325 12.2548 17.9352C12.2049 17.938 12.155 17.9304 12.1082 17.913C12.0613 17.8956 12.0185 17.8689 11.9825 17.8343C11.9443 17.8051 11.9125 17.7686 11.8887 17.7269C11.865 17.6852 11.8499 17.6391 11.8443 17.5914C11.8388 17.5438 11.8429 17.4955 11.8564 17.4494C11.8699 17.4033 11.8926 17.3605 11.923 17.3233C12.3523 16.6489 13.0065 16.1482 13.7697 15.9099C14.7736 15.6365 15.7692 15.3329 16.7692 15.0457C16.9553 14.992 17.1108 14.9154 17.1247 14.695C17.1389 14.4672 16.9754 14.3198 16.6991 14.3267C16.2257 14.3384 15.7523 14.3559 15.2791 14.3793C13.9959 14.4167 12.7119 14.341 11.442 14.153C10.7486 14.0523 10.0417 14.1014 9.36893 14.2971C8.69616 14.4929 8.07321 14.8306 7.54211 15.2876C6.74833 15.9493 5.98887 16.6518 5.21262 17.3343C5.17102 17.3639 5.13702 17.403 5.11343 17.4483C5.08983 17.4936 5.0773 17.5438 5.07685 17.5949C5.08099 19.025 5.08269 20.455 5.08196 21.8849C5.08646 21.9081 5.09356 21.9308 5.10313 21.9524C5.33923 21.8372 5.56228 21.697 5.76844 21.5342C6.30754 21.1473 6.90874 20.8552 7.54612 20.6707C8.44849 20.4681 9.38565 20.4786 10.2833 20.7013C11.5631 20.9896 12.8845 21.0448 14.1839 20.8641C15.6156 20.6269 16.9746 20.0669 18.1578 19.2266C18.9538 18.6671 19.7545 18.1146 20.5534 17.5591C20.603 17.5248 20.6516 17.489 20.7027 17.4573C20.7444 17.4229 20.7928 17.3976 20.8449 17.3831C20.897 17.3685 20.9515 17.365 21.005 17.3728C21.0585 17.3806 21.1098 17.3995 21.1556 17.4283C21.2013 17.4571 21.2406 17.4952 21.2708 17.54C21.3009 17.5849 21.3214 17.6356 21.3308 17.6888C21.3402 17.742 21.3384 17.7967 21.3255 17.8492C21.3125 17.9017 21.2887 17.9509 21.2556 17.9936C21.2226 18.0364 21.1809 18.0717 21.1333 18.0974C20.8615 18.2945 20.5861 18.4866 20.307 18.6737C19.3811 19.3613 18.4186 19.9985 17.4239 20.5824C15.414 21.6517 13.1002 22.0059 10.8624 21.5867C10.3198 21.4926 9.77817 21.3867 9.23184 21.3218C8.32572 21.2044 7.40713 21.4084 6.63593 21.8984C6.15456 22.1998 5.69107 22.5298 5.21262 22.8389C5.16603 22.8679 5.12843 22.9093 5.104 22.9585C5.07958 23.0077 5.0693 23.0627 5.0743 23.1173C5.08447 23.2385 5.06738 23.3604 5.02429 23.4741C4.9812 23.5878 4.9132 23.6904 4.82529 23.7744C4.73737 23.8584 4.63177 23.9217 4.51622 23.9595C4.40067 23.9974 4.27811 24.0089 4.15754 23.9932C3.11523 23.9954 2.07256 23.9786 1.03063 24.0005C0.812028 24.0285 0.590461 23.9806 0.4029 23.8649C0.215339 23.7492 0.0731281 23.5727 0 23.3648L0 18.4558C0.106201 18.3463 0.200724 18.2215 0.375901 18.2175C0.623339 18.212 0.774794 18.393 0.774794 18.7109C0.774794 20.132 0.778808 21.5531 0.771144 22.9743C0.771144 23.164 0.815304 23.2243 1.01274 23.2221C2.03753 23.2122 3.06268 23.214 4.08747 23.2221C4.25425 23.2221 4.31155 23.1761 4.30826 23.0049C4.29841 22.4969 4.30498 21.9885 4.30498 21.4805C4.30498 19.7665 4.30498 18.0525 4.30498 16.3387C4.30498 16.2059 4.34147 16.0697 4.11082 16.0727C3.06013 16.0843 2.00943 16.0803 0.95873 16.0748C0.805815 16.0748 0.768225 16.1314 0.773699 16.2716C0.782458 16.5037 0.770414 16.7369 0.777714 16.969C0.784648 17.1923 0.745233 17.3927 0.506189 17.4679C0.405533 17.4994 0.296595 17.4906 0.202223 17.4436C0.107851 17.3965 0.0353767 17.3147 0 17.2153L0 15.9234C0.0752301 15.7163 0.218881 15.541 0.407207 15.4266C0.595533 15.3122 0.81726 15.2655 1.03573 15.2942C2.0514 15.3179 3.06779 15.3011 4.08418 15.3015C4.77759 15.3015 5.04875 15.5617 5.08087 16.2551C5.08087 16.2861 5.08744 16.3168 5.09109 16.35C5.20787 16.3431 5.25422 16.2621 5.31553 16.208C5.81357 15.7701 6.31015 15.3308 6.80527 14.8902C7.46426 14.2778 8.25552 13.8255 9.11763 13.5684C9.97974 13.3113 10.8895 13.2563 11.7763 13.4078C13.2441 13.6094 14.7284 13.6646 16.2072 13.5724C16.405 13.5625 16.6031 13.5479 16.8009 13.5519C17.0575 13.5527 17.3057 13.6434 17.5023 13.8082C17.699 13.9731 17.8316 14.2016 17.8772 14.4541C17.9093 14.6785 17.9779 14.6866 18.167 14.6289C20.2957 13.9767 22.4271 13.3337 24.5569 12.6852C25.5711 12.3764 26.02 12.5644 26.4645 13.4943V14.0107Z" fill="white"/>
<path d="M9.37898 10.5529C8.93769 10.7666 8.47353 10.9295 7.99544 11.0383C7.07556 11.2219 6.12237 11.1386 5.24825 10.7983C4.37412 10.458 3.6155 9.87495 3.0618 9.11779C2.5081 8.36063 2.18241 7.46095 2.12312 6.52481C2.06383 5.58867 2.27341 4.65509 2.72715 3.83412C3.1809 3.01315 3.8599 2.33901 4.68411 1.89118C5.50831 1.44334 6.44338 1.24047 7.37907 1.30649C8.31476 1.3725 9.21208 1.70465 9.96524 2.26377C10.7184 2.8229 11.296 3.58569 11.63 4.46223C11.6478 4.54801 11.698 4.62361 11.7701 4.67331C11.8422 4.72301 11.9307 4.74296 12.0172 4.72901C12.5855 4.71405 13.154 4.71624 13.7223 4.72901C13.9121 4.73303 13.9734 4.68376 13.9701 4.48632C13.958 3.7805 13.9642 3.07396 13.9657 2.3696C13.9657 1.96815 14.0916 1.84151 14.4901 1.83823C14.9722 1.83458 15.4547 1.83202 15.9368 1.83823C16.0948 1.84078 16.1459 1.78932 16.1419 1.63166C16.1324 1.25284 16.1368 0.873659 16.1397 0.494838C16.1423 0.17003 16.2857 -0.00332188 16.5375 0.00105755C16.7809 0.00507202 16.9116 0.169666 16.9138 0.483525C16.9163 0.853951 16.9255 1.22474 16.9101 1.59444C16.9017 1.7937 16.9736 1.8437 17.1616 1.83932C17.6251 1.82545 18.0911 1.83275 18.5553 1.83567C18.9743 1.83859 19.086 1.95355 19.0871 2.37872C19.0871 2.84367 19.0896 3.30899 19.0871 3.77393C19.0849 4.08268 18.9447 4.24837 18.6988 4.24509C18.4528 4.2418 18.3181 4.07575 18.3137 3.76408C18.3094 3.45241 18.3057 3.14366 18.3156 2.83418C18.3207 2.67251 18.2791 2.60609 18.1024 2.60718C17.0519 2.61424 16.0012 2.61424 14.9503 2.60718C14.7759 2.60718 14.7368 2.66995 14.7372 2.83309C14.7418 5.26172 14.7418 7.69036 14.7372 10.119C14.7372 10.296 14.781 10.3617 14.966 10.354C15.2945 10.3402 15.6204 10.3445 15.9478 10.354C16.0901 10.3577 16.151 10.3175 16.1415 10.1664C16.1305 10.0031 16.1316 9.83913 16.1448 9.67594C16.1424 9.62323 16.1508 9.57057 16.1696 9.52125C16.1884 9.47193 16.2171 9.42702 16.254 9.38929C16.2909 9.35157 16.3352 9.32186 16.3841 9.302C16.433 9.28214 16.4855 9.27257 16.5382 9.27387C16.591 9.27518 16.6429 9.28734 16.6908 9.30959C16.7386 9.33184 16.7814 9.36372 16.8164 9.40322C16.8514 9.44272 16.8778 9.48901 16.8942 9.53919C16.9105 9.58938 16.9163 9.64239 16.9112 9.69492C16.9134 9.72923 16.9112 9.7639 16.9112 9.7982C16.9178 10.3518 16.9178 10.3518 17.4612 10.3518C17.6765 10.3518 17.8922 10.3427 18.1068 10.3548C18.2645 10.3635 18.3159 10.3121 18.3134 10.1515C18.3046 9.62631 18.3101 9.10078 18.3101 8.57561C18.3101 7.55934 18.3101 6.54307 18.3101 5.5268C18.301 5.42355 18.3134 5.31953 18.3466 5.22134C18.3772 5.14287 18.433 5.07681 18.5052 5.03354C18.5775 4.99027 18.662 4.97226 18.7456 4.98233C18.8292 4.9924 18.9071 5.03 18.967 5.08919C19.0269 5.14838 19.0654 5.22581 19.0765 5.30929C19.0837 5.37777 19.0864 5.44665 19.0845 5.51549C19.0845 7.20351 19.0845 8.89154 19.0845 10.5796C19.0845 11.0215 18.9787 11.127 18.5371 11.127H10.0147C9.49759 11.127 9.43555 11.073 9.37898 10.5544M11.1807 6.20853C11.1802 5.38927 10.9367 4.58858 10.481 3.90777C10.0253 3.22696 9.37785 2.69663 8.62063 2.3839C7.86341 2.07117 7.03043 1.99009 6.22712 2.15092C5.4238 2.31175 4.68625 2.70726 4.10779 3.28741C3.52933 3.86755 3.13596 4.60626 2.97747 5.41004C2.81898 6.21382 2.90249 7.04655 3.21742 7.80286C3.53235 8.55916 4.06456 9.20505 4.7467 9.65879C5.42883 10.1125 6.23023 10.3537 7.04949 10.3518C8.14666 10.3499 9.19816 9.91237 9.97285 9.13542C10.7475 8.35848 11.182 7.3057 11.1807 6.20853ZM13.9646 7.93695C13.9646 7.20485 13.9573 6.47276 13.9693 5.74066C13.9726 5.54213 13.9099 5.4925 13.7205 5.49687C13.2212 5.50892 12.7212 5.51111 12.222 5.49687C11.9935 5.48994 11.9147 5.53519 11.934 5.79139C12.0075 6.5535 11.8985 7.32215 11.6162 8.03384C11.3339 8.74553 10.8863 9.37983 10.3103 9.88433C10.2914 9.90185 10.2738 9.92083 10.2527 9.93579C10.2064 9.98155 10.1753 10.0405 10.1638 10.1046C10.1523 10.1687 10.1609 10.2348 10.1884 10.2938C10.2158 10.4004 10.3344 10.3475 10.4143 10.3496C10.6468 10.3562 10.8793 10.3518 11.1118 10.3518C11.6771 10.3518 11.6771 10.3518 11.6818 9.79893C11.6818 9.76463 11.6818 9.72996 11.6818 9.69565C11.6806 9.64399 11.6899 9.59261 11.7089 9.54457C11.7279 9.49653 11.7564 9.4528 11.7927 9.41597C11.8289 9.37914 11.8722 9.34996 11.9199 9.33017C11.9677 9.31037 12.0189 9.30036 12.0706 9.30073C12.1223 9.3011 12.1733 9.31183 12.2208 9.3323C12.2682 9.35277 12.3111 9.38256 12.3468 9.4199C12.3826 9.45724 12.4104 9.50137 12.4288 9.54967C12.4471 9.59798 12.4556 9.64948 12.4537 9.70113C12.4631 9.85597 12.4631 10.0112 12.4537 10.1661C12.4428 10.315 12.499 10.3584 12.6438 10.3551C13.0139 10.3467 13.3847 10.3434 13.7548 10.3551C13.9318 10.3613 13.9683 10.2938 13.9664 10.1325C13.9591 9.4004 13.9635 8.66831 13.9635 7.93622" fill="white"/>
<path d="M21.4334 9.04648C21.1374 9.04648 20.8619 9.05086 20.5867 9.04648C20.4588 9.05064 20.3314 9.02904 20.2121 8.98297C20.0927 8.9369 19.9838 8.86729 19.8919 8.7783C19.7999 8.6893 19.7269 8.58272 19.6769 8.46491C19.627 8.34709 19.6013 8.22044 19.6013 8.09249C19.586 7.2059 19.586 6.31907 19.6013 5.43199C19.601 5.30626 19.6261 5.18174 19.675 5.06591C19.7239 4.95008 19.7957 4.84532 19.8861 4.75789C19.9764 4.67045 20.0835 4.60215 20.2009 4.55707C20.3183 4.51199 20.4435 4.49106 20.5692 4.49553C22.0159 4.48847 23.4625 4.48847 24.9092 4.49553C25.0371 4.49111 25.1645 4.51288 25.2837 4.5595C25.4028 4.60613 25.5112 4.67661 25.6021 4.76664C25.693 4.85667 25.7645 4.96433 25.8123 5.08302C25.8601 5.2017 25.8831 5.3289 25.88 5.45681C25.8931 6.32637 25.8931 7.19605 25.88 8.06585C25.8825 8.19795 25.8579 8.32917 25.8076 8.45135C25.7574 8.57353 25.6825 8.68407 25.5877 8.7761C25.4929 8.86813 25.3802 8.93969 25.2565 8.98633C25.1329 9.03297 25.001 9.05369 24.8691 9.04721C24.5771 9.05086 24.287 9.04721 23.9625 9.04721C24.1344 9.53588 24.2965 9.99609 24.4585 10.4559C24.6235 10.9256 24.4862 11.1253 23.9957 11.126C23.1442 11.126 22.2917 11.126 21.4382 11.126C20.9469 11.126 20.8112 10.9264 20.9772 10.4534C21.1082 10.0804 21.244 9.70924 21.3725 9.33516C21.4247 9.24887 21.445 9.14694 21.4298 9.04721M22.7385 8.27205C23.4187 8.27205 24.099 8.26512 24.7793 8.2757C25.0293 8.27972 25.1132 8.1779 25.1107 7.93739C25.1026 7.15396 25.1026 6.37041 25.1107 5.58673C25.1129 5.35681 25.0293 5.26265 24.7928 5.26375C23.4237 5.27008 22.0546 5.27008 20.6852 5.26375C20.4484 5.26375 20.3648 5.35718 20.3667 5.58637C20.3732 6.36992 20.3667 7.15347 20.3699 7.93703C20.3699 8.22899 20.4177 8.27132 20.7236 8.27205C21.3953 8.27205 22.067 8.27205 22.7385 8.27205ZM22.6998 10.3523C22.9403 10.3523 23.1808 10.349 23.4213 10.3523C23.5498 10.3548 23.5943 10.3158 23.5436 10.1866C23.4749 10.0111 23.4162 9.83149 23.3534 9.65376C23.1246 9.00925 23.125 9.01254 22.4487 9.04466C22.4028 9.03972 22.3568 9.05188 22.3193 9.07882C22.2819 9.10576 22.2557 9.14558 22.2458 9.19064C22.1363 9.51617 22.0268 9.84062 21.902 10.1603C21.8458 10.3063 21.8622 10.361 22.0297 10.3541C22.2527 10.3446 22.4764 10.3519 22.6998 10.3516" fill="white"/>
<path d="M15.8608 8.27359C15.8543 8.36716 15.8401 8.46005 15.8185 8.55132C15.7962 8.63556 15.7432 8.70843 15.67 8.75568C15.5967 8.80293 15.5085 8.82115 15.4225 8.80679C15.3395 8.80623 15.2596 8.77504 15.1982 8.71921C15.1368 8.66337 15.0981 8.58682 15.0897 8.50424C15.0743 8.36783 15.0704 8.23037 15.078 8.09331C15.0734 8.04369 15.0791 7.99366 15.0947 7.94634C15.1103 7.89903 15.1356 7.85546 15.1688 7.81837C15.2021 7.78129 15.2427 7.75149 15.2881 7.73085C15.3334 7.71021 15.3826 7.69917 15.4324 7.69843C15.4839 7.69288 15.536 7.69815 15.5853 7.7139C15.6346 7.72966 15.6801 7.75554 15.7189 7.7899C15.7577 7.82426 15.7888 7.86633 15.8104 7.91342C15.8319 7.96052 15.8434 8.01159 15.8441 8.06338C15.8482 8.1318 15.8482 8.20042 15.8441 8.26885H15.8594" fill="white"/>
<path d="M16.922 3.7548C16.9216 3.85732 16.9094 3.95946 16.8855 4.05917C16.8622 4.13391 16.8145 4.19864 16.7499 4.24294C16.6854 4.28723 16.6078 4.3085 16.5297 4.30332C16.4472 4.30797 16.3657 4.28378 16.2991 4.2349C16.2325 4.18603 16.185 4.11551 16.1647 4.03544C16.1249 3.87672 16.1182 3.71149 16.145 3.55006C16.147 3.50045 16.1588 3.45173 16.1799 3.40676C16.2009 3.3618 16.2308 3.3215 16.2676 3.28825C16.3045 3.25499 16.3476 3.22944 16.3945 3.21311C16.4414 3.19677 16.4911 3.18998 16.5406 3.19313C16.5902 3.19281 16.6393 3.20251 16.685 3.22167C16.7307 3.24083 16.7721 3.26904 16.8066 3.3046C16.8411 3.34017 16.868 3.38236 16.8858 3.42862C16.9036 3.47488 16.9118 3.52426 16.91 3.57378C16.9143 3.63363 16.91 3.69385 16.91 3.7537H16.9195" fill="white"/>
<path d="M16.907 5.25214C16.9122 5.32908 16.9116 5.4063 16.9051 5.48315C16.8983 5.57004 16.8591 5.6512 16.7953 5.7106C16.7315 5.76999 16.6478 5.8033 16.5606 5.80395C16.4743 5.81674 16.3863 5.79702 16.3136 5.7486C16.241 5.70019 16.189 5.62653 16.1676 5.54191C16.1233 5.37512 16.117 5.20054 16.149 5.03098C16.1528 4.98136 16.1668 4.93306 16.19 4.88905C16.2132 4.84503 16.2452 4.80623 16.2839 4.77502C16.3227 4.74381 16.3674 4.72086 16.4154 4.70758C16.4633 4.69429 16.5135 4.69096 16.5628 4.69778C16.6103 4.69904 16.6571 4.70976 16.7004 4.72931C16.7438 4.74886 16.7828 4.77685 16.8151 4.81164C16.8475 4.84644 16.8726 4.88734 16.889 4.93195C16.9054 4.97657 16.9128 5.024 16.9106 5.07149C16.9143 5.13134 16.9106 5.19156 16.9106 5.25141L16.907 5.25214Z" fill="white"/>
<path d="M16.9087 8.27913C16.9137 8.34753 16.9137 8.4162 16.9087 8.4846C16.9019 8.5763 16.8598 8.66181 16.7913 8.72308C16.7227 8.78436 16.633 8.81662 16.5412 8.81306C16.258 8.82547 16.1284 8.6116 16.1415 8.16819C16.151 7.85615 16.3065 7.6839 16.5631 7.70141C16.8196 7.71893 16.9181 7.88389 16.9105 8.28059" fill="white"/>
<path d="M17.2071 8.24875C17.2061 8.15468 17.2156 8.06078 17.2356 7.96884C17.261 7.88665 17.3134 7.81543 17.3843 7.76666C17.4552 7.7179 17.5404 7.69443 17.6262 7.70003C17.7121 7.70564 17.7935 7.74 17.8575 7.79758C17.9214 7.85515 17.9641 7.93258 17.9786 8.01738C17.9955 8.14514 17.9984 8.27436 17.9874 8.40277C17.9902 8.45523 17.9822 8.5077 17.9641 8.557C17.9459 8.6063 17.9179 8.65139 17.8818 8.68951C17.8457 8.72763 17.8021 8.75799 17.7539 8.77874C17.7056 8.79949 17.6536 8.81019 17.6011 8.81019C17.5485 8.81019 17.4966 8.79949 17.4483 8.77874C17.4 8.75799 17.3565 8.72763 17.3203 8.68951C17.2842 8.65139 17.2562 8.6063 17.238 8.557C17.2199 8.5077 17.212 8.45523 17.2148 8.40277C17.2122 8.35131 17.2148 8.29948 17.2148 8.24802H17.2075" fill="white"/>
<path d="M15.8619 3.75503C15.8556 3.85714 15.8397 3.95843 15.8145 4.05757C15.7894 4.14114 15.734 4.21228 15.659 4.25694C15.5841 4.3016 15.4951 4.31654 15.4097 4.29881C15.3271 4.29501 15.2487 4.26105 15.1893 4.20335C15.13 4.14565 15.0939 4.06821 15.0878 3.98568C15.0738 3.85784 15.0706 3.72903 15.0784 3.60065C15.0893 3.34519 15.2243 3.19921 15.4466 3.19264C15.6772 3.18534 15.8272 3.3357 15.848 3.59919C15.8521 3.65029 15.848 3.70211 15.848 3.75357H15.8608" fill="white"/>
<path d="M16.921 6.76816C16.9193 6.87052 16.9062 6.97237 16.8819 7.07181C16.8571 7.1462 16.8079 7.21003 16.7422 7.25295C16.6766 7.29587 16.5984 7.31537 16.5202 7.30829C16.4376 7.31091 16.3566 7.28466 16.2912 7.23404C16.2258 7.18342 16.1801 7.11161 16.1619 7.03093C16.1241 6.87171 16.1187 6.70651 16.1462 6.54518C16.1545 6.44593 16.2012 6.35384 16.2763 6.28844C16.3514 6.22304 16.449 6.18949 16.5485 6.1949C16.6479 6.20032 16.7413 6.24427 16.8089 6.31744C16.8765 6.3906 16.9129 6.48722 16.9104 6.58678C16.9144 6.64663 16.9104 6.70685 16.9104 6.7667H16.921" fill="white"/>
<path d="M17.2078 3.72803C17.205 3.65089 17.2095 3.57366 17.2214 3.49738C17.2348 3.41594 17.2757 3.34154 17.3372 3.28651C17.3987 3.23149 17.4772 3.19914 17.5597 3.19484C17.6414 3.18022 17.7258 3.19561 17.7971 3.23819C17.8684 3.28076 17.922 3.34766 17.948 3.42658C18.0168 3.63132 18.0182 3.85272 17.952 4.05831C17.9276 4.14254 17.8721 4.21434 17.7968 4.25914C17.7214 4.30394 17.6318 4.31839 17.5462 4.29955C17.4639 4.29261 17.3865 4.25755 17.327 4.20026C17.2675 4.14296 17.2296 4.06694 17.2195 3.98496C17.2103 3.9001 17.2094 3.81454 17.2166 3.72949H17.2078" fill="white"/>
<path d="M15.0768 5.22911C15.0648 5.00721 15.0852 4.79116 15.344 4.71197C15.4217 4.68317 15.507 4.68196 15.5855 4.70854C15.664 4.73511 15.7311 4.78786 15.7753 4.85795C15.8303 4.98299 15.8583 5.11824 15.8574 5.25483C15.8565 5.39143 15.8268 5.5263 15.7702 5.65063C15.7243 5.71951 15.6561 5.77056 15.5771 5.79526C15.498 5.81997 15.4129 5.81684 15.3359 5.78639C15.0637 5.69661 15.0691 5.46231 15.0772 5.22984" fill="white"/>
<path d="M15.0742 6.73529C15.0742 6.378 15.1761 6.2218 15.4184 6.19954C15.6921 6.17472 15.8443 6.35355 15.8494 6.70609C15.8556 7.12798 15.7202 7.32651 15.4344 7.309C15.179 7.29476 15.0728 7.12652 15.0742 6.73529Z" fill="white"/>
<path d="M17.2145 6.72281C17.2036 6.61737 17.2178 6.51085 17.2557 6.41188C17.2897 6.33667 17.348 6.27507 17.4212 6.23695C17.4944 6.19883 17.5783 6.1864 17.6594 6.20166C17.7418 6.20914 17.8191 6.24523 17.8777 6.30369C17.9364 6.36214 17.9728 6.43928 17.9805 6.52173C17.9957 6.64964 17.998 6.77874 17.9875 6.90712C17.9892 6.95954 17.9803 7.01177 17.9613 7.06064C17.9423 7.10952 17.9135 7.15401 17.8768 7.19142C17.84 7.22883 17.796 7.25838 17.7475 7.27826C17.6989 7.29814 17.6469 7.30795 17.5944 7.30708C17.542 7.30621 17.4903 7.29469 17.4424 7.27321C17.3946 7.25174 17.3516 7.22076 17.3161 7.18215C17.2806 7.14355 17.2533 7.09813 17.2359 7.04865C17.2185 6.99917 17.2113 6.94667 17.2148 6.89434C17.2123 6.84288 17.2148 6.79143 17.2148 6.72281" fill="white"/>
<path d="M17.2145 5.2209C17.2037 5.11525 17.2177 5.00853 17.2554 4.90923C17.2894 4.83419 17.3476 4.77276 17.4208 4.73478C17.4939 4.69679 17.5777 4.68446 17.6586 4.69975C17.741 4.70706 17.8183 4.743 17.8769 4.80134C17.9356 4.85967 17.972 4.93672 17.9798 5.01908C17.9951 5.14698 17.9976 5.27609 17.9871 5.40447C17.9889 5.45689 17.98 5.50913 17.9609 5.558C17.9419 5.60687 17.9131 5.65137 17.8764 5.68878C17.8396 5.72619 17.7956 5.75573 17.7471 5.77562C17.6986 5.7955 17.6465 5.8053 17.5941 5.80444C17.5416 5.80357 17.4899 5.79205 17.442 5.77057C17.3942 5.7491 17.3512 5.71811 17.3157 5.67951C17.2802 5.64091 17.2529 5.59548 17.2355 5.54601C17.2181 5.49653 17.211 5.44403 17.2145 5.3917C17.2119 5.34024 17.2145 5.28878 17.2145 5.2209Z" fill="white"/>
<path d="M3.51896 21.7866C3.51896 21.8556 3.52407 21.925 3.51896 21.9932C3.5123 22.0851 3.47244 22.1714 3.40682 22.2361C3.34119 22.3008 3.25428 22.3394 3.1623 22.3447C3.07031 22.35 2.97954 22.3217 2.9069 22.265C2.83426 22.2083 2.78472 22.1272 2.76752 22.0367C2.74211 21.8664 2.73929 21.6935 2.75913 21.5224C2.76203 21.4725 2.77516 21.4238 2.79769 21.3792C2.82022 21.3345 2.85167 21.295 2.89009 21.2631C2.92852 21.2311 2.9731 21.2074 3.02107 21.1934C3.06904 21.1793 3.11938 21.1753 3.16897 21.1816C3.21671 21.1823 3.26382 21.1927 3.30751 21.2119C3.3512 21.2312 3.3906 21.259 3.42338 21.2937C3.45617 21.3285 3.48167 21.3694 3.4984 21.4141C3.51513 21.4588 3.52274 21.5065 3.52078 21.5542C3.52553 21.6312 3.52078 21.7089 3.52078 21.7866" fill="white"/>
<path d="M12.7606 8.24847C12.7569 8.17991 12.7569 8.1112 12.7606 8.04264C12.7691 7.95528 12.8076 7.87356 12.8695 7.81144C12.9315 7.74932 13.0132 7.71064 13.1005 7.70203C13.1878 7.69341 13.2755 7.71538 13.3484 7.76419C13.4213 7.813 13.4751 7.88562 13.5004 7.96965C13.5553 8.16062 13.5539 8.36337 13.4964 8.55357C13.4688 8.63455 13.4147 8.70383 13.3428 8.75012C13.2709 8.79642 13.1854 8.81701 13.1003 8.80855C13.0151 8.80009 12.9354 8.76308 12.874 8.70353C12.8126 8.64398 12.7732 8.5654 12.7621 8.48058C12.7573 8.40353 12.7573 8.32625 12.7621 8.2492" fill="white"/>
<path d="M12.75 6.73882C12.7495 6.64468 12.7588 6.55075 12.7778 6.45854C12.8028 6.38357 12.8505 6.31825 12.9143 6.27162C12.9782 6.22499 13.0549 6.19936 13.1339 6.19828C13.2129 6.1972 13.2904 6.22072 13.3554 6.26558C13.4205 6.31045 13.47 6.37443 13.4971 6.44868C13.5518 6.63055 13.5566 6.8238 13.5109 7.00816C13.4913 7.09825 13.4396 7.17812 13.3654 7.23288C13.2912 7.28764 13.1996 7.31355 13.1077 7.30578C13.0158 7.298 12.9299 7.25708 12.866 7.19064C12.8021 7.12419 12.7645 7.03677 12.7602 6.94466C12.7555 6.87641 12.7602 6.80743 12.7602 6.73882H12.7507" fill="white"/>
<path d="M22.7279 7.54016C22.6341 7.53693 22.5407 7.52681 22.4483 7.50986C22.3578 7.49355 22.2774 7.44231 22.2244 7.36721C22.1713 7.2921 22.1499 7.19916 22.1648 7.10842C22.1641 7.02103 22.1973 6.93677 22.2574 6.8733C22.3174 6.80983 22.3997 6.77206 22.487 6.76792C22.6406 6.75278 22.7952 6.75082 22.9491 6.76208C22.9986 6.76029 23.048 6.76874 23.0942 6.78688C23.1404 6.80503 23.1823 6.83248 23.2174 6.86754C23.2525 6.9026 23.28 6.94451 23.2982 6.99066C23.3164 7.03681 23.3249 7.08622 23.3231 7.13579C23.3251 7.18542 23.3172 7.23495 23.2999 7.2815C23.2826 7.32804 23.2562 7.37068 23.2222 7.40692C23.1882 7.44316 23.1474 7.47228 23.1021 7.49258C23.0567 7.51289 23.0078 7.52397 22.9582 7.52519C22.8812 7.52981 22.8041 7.52981 22.7272 7.52519L22.7279 7.54016Z" fill="white"/>
<path d="M5.60944 6.21454C5.60944 5.69826 5.60944 5.18197 5.60944 4.66568C5.60306 4.61679 5.60799 4.56708 5.62385 4.52039C5.6397 4.4737 5.66606 4.43128 5.70089 4.39637C5.73572 4.36147 5.77809 4.33503 5.82475 4.31908C5.87141 4.30313 5.9211 4.2981 5.97001 4.30438C6.37389 4.30438 6.77765 4.30438 7.18129 4.30438C7.46071 4.30037 7.73365 4.38868 7.95776 4.55562C8.18188 4.72256 8.34463 4.95879 8.42079 5.22767C8.49694 5.49655 8.48222 5.78304 8.37893 6.04271C8.27564 6.30237 8.08955 6.52069 7.84952 6.6638C7.78711 6.70029 7.78638 6.72511 7.82616 6.78095C8.02214 7.05576 8.21593 7.33166 8.40571 7.61085C8.43697 7.65287 8.45733 7.70199 8.46496 7.7538C8.47259 7.80562 8.46725 7.85852 8.44943 7.90777C8.4316 7.95702 8.40184 8.00108 8.36281 8.03601C8.32378 8.07094 8.2767 8.09564 8.22578 8.10791C8.15918 8.12355 8.08933 8.11759 8.02634 8.09088C7.96335 8.06418 7.9105 8.01812 7.87543 7.95938C7.63456 7.61523 7.39296 7.27144 7.15538 6.9251C7.14034 6.89838 7.11792 6.87656 7.0908 6.86226C7.06368 6.84796 7.03301 6.84177 7.00246 6.84445C6.78349 6.84919 6.56452 6.84992 6.34555 6.84445C6.26526 6.84226 6.23862 6.86014 6.24044 6.94591C6.24665 7.21706 6.243 7.48859 6.24263 7.76012C6.24794 7.8048 6.24376 7.8501 6.23036 7.89305C6.21695 7.93601 6.19464 7.97565 6.16486 8.00938C6.13509 8.04312 6.09852 8.07019 6.05757 8.08883C6.01661 8.10746 5.97218 8.11724 5.92719 8.11752C5.88219 8.11781 5.83764 8.10859 5.79645 8.09048C5.75526 8.07236 5.71836 8.04575 5.68816 8.0124C5.65796 7.97904 5.63515 7.93968 5.62121 7.8969C5.60726 7.85412 5.60251 7.80888 5.60725 7.76413C5.60725 7.24784 5.60725 6.73156 5.60725 6.21527M6.78094 4.9394C6.62547 4.9394 6.47036 4.9394 6.31489 4.9394C6.27 4.9394 6.2419 4.94195 6.2419 5.00071C6.24409 5.38427 6.2419 5.76711 6.2419 6.15104C6.2419 6.18972 6.24847 6.21199 6.29518 6.21162C6.61561 6.2087 6.93714 6.22111 7.25683 6.20286C7.41892 6.19087 7.56984 6.11575 7.67712 5.99366C7.7844 5.87157 7.83949 5.71225 7.83054 5.54996C7.82395 5.38792 7.75564 5.23453 7.63962 5.12122C7.52359 5.0079 7.36863 4.94325 7.20647 4.94049C7.0645 4.93757 6.92217 4.94049 6.78021 4.94049" fill="white"/>
</g>
</g>
<defs>
<clipPath id="clip0_17012_5315">
<rect width="26.4645" height="24" fill="white"/>
</clipPath>
</defs>
</svg>
