<svg width="35" height="35" viewBox="0 0 35 35" fill="none" xmlns="http://www.w3.org/2000/svg">
<mask id="mask0_11161_262" style="mask-type:luminance" maskUnits="userSpaceOnUse" x="0" y="0" width="35" height="35">
<path d="M35 0H0V35H35V0Z" fill="white"/>
</mask>
<g mask="url(#mask0_11161_262)">
<path d="M17.3632 0C17.8284 0.186507 18.2381 0.488946 18.5534 0.87854C19.7909 2.21691 21.0349 3.5492 22.2853 4.87541C22.4457 5.03764 22.572 5.2304 22.6566 5.4423C22.7411 5.6542 22.7823 5.88091 22.7777 6.10902C22.7696 6.94036 22.7777 7.7717 22.775 8.60411C22.775 9.03319 22.5642 9.28689 22.2263 9.28152C21.8884 9.27616 21.6825 9.01335 21.6798 8.59178C21.6766 7.98785 21.6712 7.38392 21.683 6.78053C21.6867 6.57189 21.6202 6.50592 21.4111 6.5086C20.5567 6.51825 19.7022 6.51611 18.8478 6.51182C18.5477 6.53088 18.2469 6.48558 17.9657 6.37893C17.6844 6.27228 17.4293 6.10675 17.2172 5.89344C17.0052 5.68013 16.8412 5.42396 16.7362 5.1421C16.6312 4.86024 16.5877 4.5592 16.6086 4.25915C16.6086 3.3023 16.5995 2.34492 16.614 1.38807C16.6177 1.1435 16.541 1.08825 16.3072 1.08879C11.4654 1.09522 6.62355 1.09701 1.78175 1.09415C1.28938 1.09415 1.09523 1.28563 1.09523 1.77317C1.09523 10.8418 1.09523 19.9104 1.09523 28.9789C1.09523 29.467 1.29099 29.6655 1.77639 29.6665C3.17787 29.6692 4.57881 29.6665 5.98029 29.6698C6.05721 29.6606 6.1352 29.6684 6.20882 29.6925C6.28244 29.7166 6.34991 29.7564 6.40654 29.8093C6.46317 29.8621 6.50759 29.9267 6.53671 29.9985C6.56582 30.0702 6.57892 30.1475 6.5751 30.2249C6.57425 30.2992 6.55811 30.3725 6.52769 30.4404C6.49726 30.5082 6.45322 30.569 6.39828 30.6191C6.34334 30.6691 6.27869 30.7073 6.20835 30.7313C6.13801 30.7553 6.06349 30.7646 5.98941 30.7586C5.91003 30.7618 5.82851 30.7586 5.7502 30.7586C4.53108 30.7586 3.31088 30.7221 2.09337 30.7698C1.64557 30.8402 1.18741 30.7468 0.802906 30.5067C0.418406 30.2666 0.133344 29.896 0 29.4627L0 1.29904C0.0950679 0.993458 0.262976 0.715561 0.489268 0.489268C0.715561 0.262976 0.993458 0.0950679 1.29904 0H17.3632ZM17.6995 1.95017C17.6995 2.80832 17.6942 3.57799 17.6995 4.34496C17.6896 4.48837 17.7105 4.63224 17.7609 4.76686C17.8113 4.90148 17.89 5.02373 17.9917 5.12535C18.0934 5.22697 18.2156 5.3056 18.3503 5.35594C18.4849 5.40627 18.6288 5.42714 18.7722 5.41713C19.3863 5.42517 20.0005 5.42034 20.614 5.41713C20.6848 5.41713 20.7749 5.45574 20.8286 5.33882L17.6995 1.95017Z" fill="#EBA900"/>
<path d="M26.9343 0C27.1386 0.178174 27.271 0.424742 27.3065 0.6935C27.387 1.17621 27.5211 1.6482 27.6021 2.12984C27.609 2.21333 27.6436 2.29209 27.7005 2.35362C27.7574 2.41514 27.8332 2.45588 27.9158 2.46935C28.2998 2.57647 28.6691 2.73049 29.0154 2.92793C29.0898 2.97785 29.1788 3.00157 29.2682 2.99535C29.3576 2.98914 29.4425 2.95334 29.5093 2.8936C29.9497 2.59057 30.4007 2.30362 30.8502 2.01345C30.908 1.96094 30.976 1.92106 31.0501 1.89638C31.1241 1.8717 31.2025 1.86276 31.2802 1.87013C31.3579 1.8775 31.4333 1.90103 31.5013 1.93919C31.5694 1.97736 31.6288 2.02932 31.6756 2.09176C32.0994 2.50529 32.5129 2.92954 32.9307 3.34896C33.0401 3.44352 33.1086 3.57677 33.1219 3.72077C33.1352 3.86476 33.0923 4.00831 33.002 4.12131C32.7054 4.57989 32.412 5.04275 32.1042 5.49222C32.0447 5.5592 32.0093 5.64412 32.0036 5.7335C31.9979 5.82288 32.0221 5.91162 32.0725 5.98566C32.2744 6.34247 32.4311 6.72298 32.5392 7.11843C32.5523 7.19008 32.5885 7.25548 32.6422 7.30467C32.696 7.35386 32.7643 7.38413 32.8368 7.39089C33.3732 7.49012 33.9058 7.61187 34.4394 7.72611C34.5229 7.72873 34.6049 7.74917 34.6799 7.78605C34.7548 7.82293 34.821 7.8754 34.8741 7.93996C34.9271 8.00451 34.9657 8.07964 34.9873 8.16033C35.0089 8.24102 35.013 8.3254 34.9994 8.40781C35.0026 8.97741 34.9994 9.54702 34.9994 10.1161C35.0079 10.19 35.0018 10.2649 34.9813 10.3365C34.9608 10.408 34.9264 10.4748 34.8801 10.5331C34.8337 10.5913 34.7764 10.6398 34.7113 10.6759C34.6461 10.7119 34.5746 10.7347 34.5006 10.7431C33.9642 10.8503 33.4333 10.9732 32.8974 11.0767C32.8087 11.0823 32.7243 11.1168 32.657 11.1749C32.5897 11.233 32.5432 11.3115 32.5247 11.3985C32.3636 11.9569 32.1209 12.4884 31.8044 12.9759C31.7721 13.046 31.7255 13.1085 31.6675 13.1595C31.6095 13.2104 31.5415 13.2486 31.4678 13.2716C31.3941 13.2945 31.3165 13.3017 31.2398 13.2927C31.1632 13.2838 31.0893 13.2588 31.0229 13.2194C30.956 13.1801 30.8984 13.1268 30.8539 13.0632C30.8095 12.9996 30.7792 12.9272 30.7652 12.8509C30.7512 12.7745 30.7538 12.6961 30.7728 12.6209C30.7918 12.5456 30.8268 12.4754 30.8754 12.4149C31.214 11.8608 31.4641 11.2573 31.6166 10.6262C31.6417 10.4912 31.7101 10.368 31.8114 10.2754C31.9128 10.1828 32.0415 10.1257 32.1782 10.1129C32.67 10.0195 33.1576 9.90583 33.6494 9.81358C33.8318 9.77925 33.9106 9.71865 33.9117 9.50893C33.916 8.73606 33.9262 8.73552 33.1688 8.56818C32.8245 8.49255 32.4807 8.41317 32.1342 8.34935C32.0088 8.33589 31.8911 8.28224 31.7987 8.19641C31.7063 8.11057 31.6441 7.99715 31.6215 7.87307C31.4714 7.22927 31.2158 6.61473 30.8652 6.05431C30.7945 5.94997 30.759 5.82571 30.764 5.69975C30.7691 5.5738 30.8143 5.45276 30.8931 5.35437C31.1843 4.91939 31.46 4.47369 31.7561 4.04246C31.7814 4.01685 31.8007 3.98599 31.8127 3.95208C31.8248 3.91816 31.8292 3.88202 31.8257 3.84621C31.8222 3.81039 31.8109 3.77578 31.7926 3.74482C31.7743 3.71385 31.7494 3.68729 31.7196 3.66702C31.1726 3.09903 31.1774 3.09473 30.5338 3.5147C30.2382 3.70778 29.9389 3.89443 29.6482 4.09449C29.5456 4.17706 29.4187 4.2238 29.287 4.22758C29.1553 4.23135 29.026 4.19196 28.9188 4.11541C28.3684 3.77304 27.7651 3.52421 27.1333 3.379C27.0098 3.35728 26.8963 3.29674 26.8095 3.20617C26.7227 3.11561 26.667 2.99973 26.6506 2.87537C26.5514 2.37335 26.4269 1.87615 26.3347 1.37359C26.2977 1.17246 26.2365 1.08825 26.0129 1.08825C25.2421 1.08825 25.2432 1.07806 25.0909 1.84397C25.0222 2.18991 24.9541 2.53586 24.8763 2.87912C24.8689 2.95631 24.845 3.03102 24.8063 3.09825C24.7677 3.16548 24.7151 3.22368 24.6522 3.26897C24.5892 3.31426 24.5173 3.34558 24.4413 3.36086C24.3653 3.37613 24.2868 3.37501 24.2113 3.35755C24.1375 3.34446 24.0673 3.31589 24.0054 3.27372C23.9434 3.23156 23.8911 3.17674 23.8519 3.11289C23.8127 3.04904 23.7874 2.97761 23.7778 2.90329C23.7682 2.82898 23.7745 2.75347 23.7961 2.68175C23.9426 1.93408 24.1115 1.1907 24.2654 0.444633C24.3242 0.260299 24.4464 0.102759 24.6103 0L26.9343 0Z" fill="#EBA900"/>
<path d="M21.3376 34.9995C17.6579 34.9995 13.9782 34.9995 10.2985 34.9995C9.94991 35.0299 9.59895 34.9837 9.27009 34.8643C8.94123 34.7449 8.64241 34.5552 8.39448 34.3083C8.14656 34.0615 7.95552 33.7635 7.83471 33.4351C7.71389 33.1068 7.66622 32.756 7.69502 32.4074C7.69216 28.8074 7.69216 25.2074 7.69502 21.6074C7.69502 20.2526 7.7272 18.8962 7.68697 17.5424C7.6688 17.1952 7.72408 16.8481 7.84919 16.5237C7.9743 16.1993 8.16644 15.905 8.41304 15.6599C8.65965 15.4148 8.95518 15.2245 9.28034 15.1014C9.6055 14.9783 9.95298 14.9251 10.3001 14.9454C11.7101 15.0039 13.125 14.9503 14.5372 14.9653C14.8279 14.9685 14.9009 14.8789 14.8939 14.6C14.8757 13.8491 14.8821 13.0983 14.8896 12.3447C14.879 12.0843 14.9226 11.8246 15.0178 11.5821C15.113 11.3395 15.2577 11.1195 15.4426 10.9359C15.6275 10.7523 15.8486 10.6092 16.0918 10.5157C16.335 10.4222 16.5951 10.3804 16.8553 10.3929C19.8514 10.3879 22.8476 10.3879 25.844 10.3929C26.1072 10.3829 26.3696 10.4276 26.6146 10.5243C26.8597 10.621 27.0819 10.7675 27.2674 10.9546C27.4528 11.1416 27.5974 11.3652 27.692 11.611C27.7865 11.8569 27.829 12.1197 27.8167 12.3828C27.8215 13.1337 27.8285 13.8845 27.8119 14.6381C27.806 14.8923 27.8746 14.9664 28.1337 14.9642C29.5818 14.9519 31.03 14.9562 32.4738 14.9589C32.811 14.9384 33.1487 14.9898 33.4646 15.1096C33.7805 15.2295 34.0673 15.4151 34.306 15.6541C34.5447 15.8932 34.73 16.1802 34.8494 16.4962C34.9689 16.8122 35.0198 17.15 34.9989 17.4872C34.9989 22.477 34.9989 27.4669 34.9989 32.4567C35.0199 32.7969 34.9681 33.1376 34.8471 33.4562C34.726 33.7748 34.5386 34.064 34.2971 34.3045C34.0556 34.545 33.7657 34.7314 33.4466 34.8511C33.1275 34.9709 32.7865 35.0213 32.4465 34.999C28.7439 35.0012 25.0414 35.0012 21.3392 34.999M33.9059 22.6834C33.6486 22.8381 33.3714 22.957 33.082 23.0368C32.3033 23.202 31.523 23.3602 30.7414 23.5115C28.6529 23.9152 26.5634 24.314 24.4731 24.7081C24.2468 24.7504 24.1717 24.8325 24.1888 25.0594C24.204 25.3323 24.204 25.606 24.1888 25.8789C24.1679 26.5733 23.8935 27.236 23.4173 27.7419C22.9412 28.2477 22.2962 28.5617 21.6044 28.6245C20.9125 28.6873 20.2216 28.4945 19.6621 28.0827C19.1027 27.6708 18.7134 27.0683 18.5679 26.389C18.4941 25.9735 18.476 25.5499 18.5143 25.1296C18.5277 24.832 18.4327 24.7247 18.1388 24.6705C15.8003 24.2415 13.464 23.8004 11.1298 23.3474C10.3225 23.2659 9.53523 23.046 8.80258 22.6973C8.79507 22.8158 8.7881 22.8716 8.7881 22.9274C8.7881 26.1287 8.7881 29.3298 8.7881 32.5307C8.77494 32.717 8.80244 32.9038 8.8687 33.0783C8.93496 33.2529 9.03839 33.4109 9.17182 33.5415C9.30525 33.6721 9.46549 33.772 9.64141 33.8345C9.81734 33.897 10.0048 33.9204 10.1906 33.9032C17.6184 33.9032 25.0461 33.9032 32.4738 33.9032C32.6652 33.9219 32.8583 33.898 33.0394 33.8334C33.2205 33.7688 33.3851 33.6651 33.5215 33.5295C33.6579 33.3939 33.7627 33.23 33.8284 33.0492C33.8941 32.8685 33.9191 32.6755 33.9016 32.4841C33.9016 31.2537 33.9016 30.0233 33.9016 28.7929V22.6839M21.351 16.0471V16.06C19.3011 16.06 17.251 16.06 15.2007 16.06C13.5149 16.06 11.8297 16.046 10.144 16.0514C9.97525 16.0376 9.80548 16.0584 9.64504 16.1124C9.4846 16.1665 9.33685 16.2526 9.21082 16.3657C9.08478 16.4787 8.98311 16.6162 8.912 16.7699C8.84088 16.9235 8.80183 17.09 8.79721 17.2593C8.7704 18.4317 8.79721 19.6047 8.79721 20.7777C8.79974 20.9837 8.85822 21.1852 8.96639 21.3605C9.07456 21.5358 9.22836 21.6785 9.41134 21.7732C9.67654 21.9298 9.96931 22.0341 10.2738 22.0805C11.2907 22.2729 12.3076 22.4652 13.3245 22.6576C14.9336 22.9633 16.5426 23.2658 18.1517 23.5817C18.437 23.6354 18.5271 23.5753 18.5116 23.2739C18.4853 22.8196 18.5014 22.3621 18.5057 21.9073C18.4909 21.7559 18.5097 21.6032 18.5606 21.4599C18.6115 21.3166 18.6934 21.1863 18.8003 21.0782C18.9072 20.9701 19.0367 20.8868 19.1794 20.8343C19.3221 20.7819 19.4746 20.7614 19.6261 20.7745C20.7764 20.7688 21.9267 20.7688 23.077 20.7745C23.2257 20.7645 23.3749 20.7864 23.5144 20.8389C23.6539 20.8914 23.7806 20.9732 23.8858 21.0787C23.9911 21.1843 24.0725 21.3112 24.1246 21.4509C24.1767 21.5906 24.1982 21.7398 24.1878 21.8885C24.1942 22.3894 24.1974 22.8909 24.1878 23.3903C24.1824 23.6048 24.2274 23.6509 24.4559 23.6048C26.6882 23.1677 28.9248 22.7504 31.1576 22.3176C31.8013 22.2386 32.4352 22.0937 33.0493 21.8853C33.4569 21.7147 33.8361 21.4514 33.8646 20.9971C33.9575 19.6911 33.9559 18.38 33.8597 17.0742C33.8061 16.4043 33.2161 16.0466 32.4271 16.046C28.7371 16.046 25.047 16.046 21.3569 16.046M21.3649 11.4833C19.8739 11.4833 18.3828 11.4833 16.8918 11.4833C16.7691 11.4675 16.6443 11.4799 16.5271 11.5196C16.4099 11.5593 16.3033 11.6252 16.2153 11.7123C16.1274 11.7993 16.0605 11.9053 16.0197 12.0222C15.979 12.139 15.9654 12.2636 15.98 12.3865C15.9741 12.9443 15.98 13.5021 15.98 14.0594C15.98 14.9712 15.98 14.9621 16.902 14.9438C17.1289 14.9395 17.1948 14.8645 17.1905 14.6456C17.1787 14.0653 17.1905 13.485 17.1836 12.9046C17.1804 12.704 17.2372 12.6268 17.4517 12.6273C20.0466 12.6338 22.6416 12.6338 25.2369 12.6273C25.4439 12.6273 25.5163 12.681 25.505 12.8955C25.4884 13.271 25.5007 13.6464 25.5007 14.0219C25.5007 14.9728 25.5007 14.9637 26.4511 14.9444C26.6898 14.9395 26.7284 14.8462 26.7252 14.6397C26.7156 13.9114 26.7252 13.183 26.7209 12.4546C26.7209 11.7842 26.4131 11.4828 25.7335 11.4822C24.2768 11.4822 22.8199 11.4822 21.3628 11.4822M19.6036 24.0183C19.6036 24.6217 19.5939 25.2251 19.6036 25.828C19.6085 26.2816 19.7903 26.7155 20.1104 27.037C20.4305 27.3586 20.8635 27.5424 21.3171 27.5494C21.7707 27.5564 22.2092 27.386 22.539 27.0745C22.8689 26.7629 23.064 26.3349 23.0829 25.8816C23.114 24.619 23.0893 23.3554 23.0968 22.0923C23.0968 21.9083 23.0298 21.8617 22.8581 21.8622C21.8568 21.8681 20.8549 21.8719 19.8546 21.8622C19.6282 21.8595 19.5945 21.9507 19.5971 22.1438C19.6063 22.7697 19.6004 23.3956 19.6004 24.021M21.322 13.7285C20.399 13.7285 19.4765 13.7333 18.5539 13.7247C18.355 13.7247 18.2568 13.7655 18.2724 13.9875C18.2858 14.2264 18.2858 14.4658 18.2724 14.7046C18.2643 14.8929 18.3287 14.9626 18.5261 14.9621C20.4058 14.956 22.2855 14.956 24.1652 14.9621C24.3379 14.9621 24.4152 14.9154 24.4055 14.7314C24.3889 14.5042 24.3889 14.276 24.4055 14.0487C24.4291 13.7961 24.3487 13.7183 24.088 13.7226C23.1655 13.7387 22.2424 13.729 21.3199 13.729" fill="#EBA900"/>
<path d="M30.2288 9.32721C30.229 9.88681 30.115 10.4406 29.8936 10.9545C29.7284 11.3535 29.45 11.5107 29.1341 11.3873C28.8182 11.264 28.7281 10.9583 28.8825 10.5565C29.067 10.1141 29.1556 9.63751 29.1425 9.1583C29.1294 8.67909 29.0149 8.2081 28.8065 7.77637C28.5981 7.34464 28.3006 6.96199 27.9336 6.65362C27.5665 6.34525 27.1383 6.11818 26.6771 5.98737C26.4021 5.91472 26.1198 5.87298 25.8355 5.86294C25.4252 5.83987 25.2064 5.6248 25.2193 5.28529C25.2322 4.94578 25.466 4.76825 25.8854 4.77254C27.0637 4.80569 28.1811 5.30279 28.9947 6.15566C29.8083 7.00853 30.2522 8.14819 30.2299 9.32668" fill="#EBA900"/>
<path d="M10.11 7.37428C11.3389 7.37428 12.5677 7.37428 13.7963 7.37428C14.2254 7.37428 14.4796 7.57916 14.4758 7.91706C14.4721 8.25496 14.2109 8.46253 13.7872 8.46253C11.3296 8.46432 8.87188 8.46432 6.41397 8.46253C5.90283 8.46253 5.60945 8.05973 5.81756 7.66337C5.87264 7.56319 5.95655 7.48187 6.05839 7.42995C6.16024 7.37802 6.27534 7.35788 6.38877 7.37213C7.62881 7.37642 8.86938 7.37213 10.1094 7.37213" fill="#EBA900"/>
<path d="M10.0912 5.97648C8.9195 5.97648 7.74775 5.97648 6.57601 5.97648C6.43975 5.98189 6.30329 5.97291 6.16892 5.94967C6.05246 5.92238 5.94858 5.85669 5.874 5.76317C5.79943 5.66966 5.7585 5.55376 5.75782 5.43415C5.75714 5.31454 5.79674 5.19818 5.87025 5.10382C5.94375 5.00946 6.04688 4.94259 6.16302 4.91398C6.28578 4.89019 6.41081 4.88029 6.53578 4.88448C8.92468 4.88448 11.3136 4.88448 13.7025 4.88448C13.7481 4.88448 13.7937 4.88448 13.8393 4.88448C14.2356 4.9011 14.4855 5.12101 14.4759 5.44443C14.4725 5.52174 14.4531 5.59752 14.4189 5.66695C14.3847 5.73637 14.3365 5.79792 14.2772 5.8477C14.2179 5.89748 14.149 5.93439 14.0747 5.9561C14.0004 5.97781 13.9224 5.98384 13.8457 5.9738C12.5944 5.98024 11.3431 5.9738 10.0912 5.97648Z" fill="#EBA900"/>
<path d="M8.31127 10.9371C7.67355 10.9371 7.0353 10.9398 6.39758 10.9371C6.00015 10.9371 5.74967 10.7162 5.75396 10.3879C5.75825 10.0597 6.01034 9.84675 6.40884 9.84568C7.68464 9.84246 8.96044 9.84246 10.2362 9.84568C10.6406 9.84568 10.8772 10.0602 10.8739 10.3976C10.8707 10.7349 10.6369 10.9339 10.226 10.9371C9.58832 10.9404 8.9506 10.9371 8.31235 10.9371" fill="#EBA900"/>
<path d="M3.48821 10.9356C3.30652 10.9631 3.12096 10.9251 2.96474 10.8283C2.90454 10.7849 2.85402 10.7294 2.81635 10.6655C2.77869 10.6015 2.75472 10.5304 2.74595 10.4567C2.73717 10.383 2.7438 10.3083 2.76539 10.2373C2.78699 10.1662 2.82309 10.1005 2.87141 10.0441C3.0451 9.90719 3.25889 9.83093 3.48004 9.82706C3.70119 9.82318 3.91752 9.8919 4.0959 10.0227C4.14638 10.077 4.18521 10.1411 4.20997 10.211C4.23474 10.2808 4.24492 10.3551 4.2399 10.429C4.23487 10.503 4.21474 10.5752 4.18075 10.6411C4.14676 10.707 4.09963 10.7652 4.04226 10.8122C3.88076 10.9227 3.68298 10.9668 3.48982 10.9356" fill="#EBA900"/>
<path d="M3.52044 7.37703C3.6425 7.34757 3.77074 7.35731 3.88695 7.40487C4.00316 7.45244 4.10143 7.5354 4.16781 7.64199C4.23685 7.74908 4.26336 7.87812 4.24212 8.00376C4.22088 8.1294 4.15344 8.24256 4.05303 8.32101C3.88316 8.42426 3.68804 8.4785 3.48926 8.47774C3.29048 8.47699 3.09578 8.42126 2.9267 8.31671C2.82644 8.23014 2.76204 8.10931 2.74607 7.97781C2.73011 7.8463 2.76372 7.71357 2.84035 7.60552C3.00769 7.35987 3.25977 7.36416 3.51937 7.37757" fill="#EBA900"/>
<path d="M3.48447 5.97272C3.19163 5.98291 2.92721 5.94644 2.79312 5.64233C2.7405 5.5342 2.72818 5.41085 2.75836 5.29445C2.78854 5.17805 2.85925 5.07623 2.95778 5.00729C3.12316 4.92024 3.30724 4.87476 3.49413 4.87476C3.68102 4.87476 3.8651 4.92024 4.03048 5.00729C4.13 5.07654 4.20147 5.17912 4.23196 5.29647C4.26246 5.41382 4.24997 5.53821 4.19674 5.64715C4.05944 5.96628 3.77464 5.99149 3.48447 5.97862" fill="#EBA900"/>
<path d="M21.3574 26.2757C21.2152 26.279 21.0775 26.2256 20.9746 26.1273C20.9236 26.0787 20.8827 26.0205 20.8543 25.956C20.8258 25.8916 20.8104 25.8221 20.8087 25.7517C20.8071 25.6813 20.8194 25.6112 20.8448 25.5455C20.8703 25.4798 20.9084 25.4198 20.9571 25.3688C21.0554 25.2659 21.1905 25.2063 21.3328 25.203C21.475 25.1998 21.6127 25.2531 21.7156 25.3514C21.8185 25.4497 21.8782 25.5848 21.8814 25.727C21.8847 25.8693 21.8313 26.007 21.7331 26.1099C21.6348 26.2128 21.4997 26.2724 21.3574 26.2757Z" fill="#EBA900"/>
</g>
</svg>
