<svg width="37" height="37" viewBox="0 0 37 37" fill="none" xmlns="http://www.w3.org/2000/svg">
<path d="M29.293 35.921L28.368 35.1502C25.2846 32.221 23.1263 30.371 23.1263 28.0585C23.1263 26.2085 24.668 24.6668 26.518 24.6668C27.5971 24.6668 28.6763 25.1293 29.293 25.9002C29.9096 25.1293 30.9888 24.6668 32.068 24.6668C33.918 24.6668 35.4596 26.0543 35.4596 28.0585C35.4596 30.371 33.3013 32.221 30.218 35.1502L29.293 35.921ZM27.7513 3.0835C29.4471 3.0835 30.8346 4.471 30.8346 6.16683V20.1652L29.293 20.0418L27.7513 20.1652V6.16683H20.043V18.5002L16.1888 15.0314L12.3346 18.5002V6.16683H9.2513V30.8335H20.1663C20.3513 31.9435 20.7367 32.9764 21.2763 33.9168H9.2513C7.55547 33.9168 6.16797 32.5293 6.16797 30.8335V6.16683C6.16797 4.471 7.55547 3.0835 9.2513 3.0835H27.7513Z" fill="#EC9700"/>
</svg>
