<svg width="26" height="26" viewBox="0 0 26 26" fill="none" xmlns="http://www.w3.org/2000/svg">
<g clip-path="url(#clip0_17009_3572)">
<path d="M8.28163 7.78818H9.32003V11.9418H8.80073C8.12631 11.9418 8.12631 12.9802 8.80073 12.9802H17.1082C17.7826 12.9802 17.7826 11.9418 17.1082 11.9418H16.5891V7.78818C17.4198 7.78818 17.9391 7.89212 18.0948 7.42479C18.1255 7.32462 18.1271 7.2178 18.0996 7.11673C18.072 7.01565 18.0164 6.92446 17.9391 6.85372L13.266 3.2188C13.1798 3.14323 13.0691 3.10156 12.9545 3.10156C12.8398 3.10156 12.7291 3.14323 12.6429 3.2188L7.97001 6.85332C7.88385 6.91927 7.82042 7.01046 7.78858 7.11418C7.75673 7.2179 7.75805 7.32897 7.79237 7.4319C7.82668 7.53484 7.89226 7.62449 7.97997 7.68836C8.06768 7.75223 8.17314 7.78713 8.28163 7.78818ZM12.4352 11.9418V10.3839H13.4737V11.9416L12.4352 11.9418ZM15.5505 11.9418H14.5121V9.8646C14.5163 9.79531 14.5057 9.72592 14.4811 9.66101C14.4565 9.5961 14.4184 9.53716 14.3693 9.48807C14.3202 9.43899 14.2613 9.40088 14.1963 9.37627C14.1314 9.35166 14.062 9.3411 13.9928 9.3453H11.9161C11.8469 9.3411 11.7775 9.35166 11.7126 9.37627C11.6477 9.40088 11.5887 9.43899 11.5396 9.48807C11.4905 9.53716 11.4524 9.5961 11.4278 9.66101C11.4032 9.72592 11.3926 9.79531 11.3968 9.8646V11.9414H10.3584V7.78818H15.5505V11.9418ZM12.9546 4.30918C16.4853 7.061 16.1217 6.74899 16.0698 6.74899H9.78737L12.9546 4.30918Z" fill="white"/>
<path d="M25.9334 24.8702C24.2719 13.8111 24.4796 14.2264 24.0643 14.0705L21.001 12.9282C23.7528 5.91901 18.8722 0 12.9532 0C6.98224 0 2.15282 5.91901 4.9574 12.9284L1.89495 14.0705C1.47959 14.2262 1.68727 13.6032 0.0258205 24.8702C0.00540019 24.9399 0.00229402 25.0136 0.016771 25.0848C0.031248 25.156 0.0628717 25.2227 0.108903 25.2789C0.154934 25.3352 0.213985 25.3793 0.28094 25.4076C0.347895 25.4359 0.420735 25.4474 0.493152 25.4412C0.597092 25.4412 0.12976 25.5452 7.19091 23.4164C13.2137 26.1682 12.8503 26.0643 13.1099 25.9605C13.2656 25.9086 14.2009 25.4412 18.6655 23.4164C25.7271 25.5452 25.3105 25.4412 25.4153 25.4412C25.4887 25.444 25.5619 25.4307 25.6297 25.4022C25.6975 25.3738 25.7583 25.3309 25.8077 25.2765C25.8572 25.2221 25.8942 25.1575 25.9161 25.0873C25.938 25.0171 25.9443 24.943 25.9346 24.8702H25.9334ZM12.9532 1.03841C21.3636 1.03841 25.0509 12.4091 12.9532 20.6646C12.3821 20.2492 11.7071 19.7299 10.9802 19.1588C0.751812 10.3842 5.78813 1.03841 12.9532 1.03841ZM2.5172 14.9013L5.37356 13.8629C5.82984 14.8031 6.38692 15.6909 7.03501 16.5107C6.93107 18.5876 6.77535 21.2356 6.72338 22.4813L1.116 24.1947L2.5172 14.9013ZM8.07262 17.7051C9.38342 19.1395 10.8457 20.4277 12.4339 21.5473V24.6105L7.76119 22.4817C8.02065 17.1858 8.02065 17.6539 8.07262 17.7051ZM13.4723 24.6105C13.4723 21.1837 13.4723 21.5473 13.5243 21.4953C15.1336 20.403 16.599 19.1124 17.8858 17.6539C17.9378 18.3283 18.0415 21.1847 18.1454 22.4825L13.4723 24.6105ZM19.1837 22.4817C19.1317 21.2876 18.976 18.5876 18.872 16.5111C19.5063 15.6816 20.0624 14.7952 20.5335 13.8633L23.3898 14.9017L24.7916 24.1436L19.1837 22.4817Z" fill="white"/>
</g>
<defs>
<clipPath id="clip0_17009_3572">
<rect width="25.9385" height="26" fill="white"/>
</clipPath>
</defs>
</svg>
