<svg width="16" height="16" viewBox="0 0 16 16" fill="none" xmlns="http://www.w3.org/2000/svg">
<path d="M3.33203 8.50636C3.33203 7.60119 3.33203 7.14861 3.51501 6.75078C3.69798 6.35296 4.04161 6.05842 4.72887 5.46934L5.39553 4.89791C6.63774 3.83316 7.25885 3.30078 7.9987 3.30078C8.73855 3.30078 9.35965 3.83316 10.6019 4.89791L11.2685 5.46934C11.9558 6.05842 12.2994 6.35296 12.4824 6.75078C12.6654 7.14861 12.6654 7.60119 12.6654 8.50637V11.3333C12.6654 12.5904 12.6654 13.2189 12.2748 13.6094C11.8843 14 11.2558 14 9.9987 14H5.9987C4.74162 14 4.11308 14 3.72256 13.6094C3.33203 13.2189 3.33203 12.5904 3.33203 11.3333V8.50636Z" stroke="#EBA900" stroke-width="0.5"/>
<path d="M9.66536 14V11C9.66536 10.4477 9.21765 10 8.66537 10H7.33203C6.77975 10 6.33203 10.4477 6.33203 11V14" stroke="#EBA900" stroke-width="0.5" stroke-linecap="round" stroke-linejoin="round"/>
</svg>
