<svg width="22" height="22" viewBox="0 0 22 22" fill="none" xmlns="http://www.w3.org/2000/svg">
<g clip-path="url(#clip0_17012_5328)">
<mask id="mask0_17012_5328" style="mask-type:luminance" maskUnits="userSpaceOnUse" x="0" y="0" width="22" height="22">
<path d="M22 0H0V22H22V0Z" fill="white"/>
</mask>
<g mask="url(#mask0_17012_5328)">
<path d="M9.2946 0.0859375C9.79372 0.230241 10.2383 0.52044 10.5713 0.919271C11.6473 2.0106 12.7416 3.08594 13.8193 4.17627C14.0231 4.37082 14.1754 4.6129 14.2626 4.88081C14.3498 5.14873 14.3692 5.4341 14.319 5.71134C14.2688 5.98858 14.1506 6.24902 13.9749 6.46933C13.7993 6.68963 13.5717 6.8629 13.3126 6.9736C13.0344 7.10503 12.7221 7.1464 12.4193 7.09194C12.3487 7.07201 12.2738 7.07368 12.2043 7.09674C12.1347 7.11979 12.0736 7.16317 12.0289 7.22127C11.9132 7.33599 11.7908 7.44374 11.6623 7.54394C11.8954 7.65635 12.0903 7.83473 12.2229 8.05695C12.3555 8.27916 12.42 8.53542 12.4083 8.79394C12.4006 9.05158 12.3085 9.29955 12.1459 9.4996C12.0793 9.5836 12.0813 9.6286 12.1649 9.7016C14.3716 11.6223 16.5767 13.5445 18.7803 15.4683C19.5289 16.1216 20.2803 16.7723 21.0256 17.4289C21.479 17.8148 21.7802 18.3495 21.8753 18.9373C21.8848 18.9777 21.8971 19.0173 21.9123 19.0559V19.6526C21.8979 19.7059 21.8816 19.7589 21.8699 19.8129C21.788 20.2555 21.5907 20.6686 21.2981 21.0105C21.0055 21.3525 20.6278 21.6112 20.2033 21.7606C20.0225 21.8208 19.8387 21.8714 19.6526 21.9123H19.0146C18.9973 21.9013 18.9813 21.8833 18.9619 21.8789C18.324 21.78 17.7458 21.4473 17.3396 20.9456C16.7326 20.2406 16.1186 19.5416 15.5063 18.8399C13.5772 16.6235 11.6482 14.4055 9.71927 12.1859C9.63927 12.0939 9.59027 12.0683 9.48594 12.1546C9.28583 12.3174 9.03624 12.4072 8.77827 12.4093C8.52124 12.4169 8.26751 12.3499 8.04779 12.2163C7.82806 12.0827 7.65178 11.8883 7.54027 11.6566C7.44831 11.7822 7.34738 11.9009 7.23827 12.0119C7.17612 12.0619 7.12948 12.1285 7.1038 12.204C7.07813 12.2795 7.07447 12.3608 7.09327 12.4383C7.1333 12.696 7.10973 12.9595 7.02462 13.206C6.93951 13.4525 6.79543 13.6745 6.60494 13.8526C6.44327 14.0134 6.25092 14.14 6.03932 14.2249C5.82772 14.3098 5.6012 14.3513 5.37324 14.3469C5.14528 14.3425 4.92053 14.2923 4.71238 14.1992C4.50423 14.1062 4.31692 13.9722 4.1616 13.8053C3.08327 12.7349 2.01627 11.6526 0.933604 10.5859C0.52876 10.2495 0.233596 9.79986 0.0859375 9.2946V8.78294C0.0971786 8.76488 0.106666 8.7458 0.114271 8.72594C0.398271 7.6926 1.09427 7.2206 2.1376 7.3616C2.17554 7.36684 2.21419 7.36166 2.24942 7.34663C2.28465 7.3316 2.31513 7.30728 2.3376 7.27627C3.98427 5.6296 5.63138 3.98327 7.27894 2.33727C7.31275 2.30809 7.33766 2.26998 7.35081 2.22729C7.36395 2.18461 7.36481 2.13908 7.35327 2.09594C7.28697 1.74071 7.33579 1.37358 7.49263 1.04803C7.64947 0.722471 7.90615 0.455482 8.22527 0.285938C8.40532 0.203995 8.59185 0.1371 8.78294 0.0859375L9.2946 0.0859375ZM11.4166 6.60027C11.3803 6.5616 11.3433 6.5196 11.3036 6.47994C10.1896 5.36483 9.07627 4.24905 7.9636 3.1326C7.85394 3.02194 7.79694 3.0136 7.68127 3.12927C6.17016 4.64949 4.65394 6.1656 3.1326 7.6776C3.0216 7.78794 3.01427 7.84427 3.12994 7.9596C4.24905 9.06938 5.3636 10.1838 6.4736 11.3029C6.5836 11.4136 6.64027 11.4223 6.7536 11.3056C7.48027 10.5663 8.21594 9.83594 8.94894 9.10294C9.73227 8.31983 10.5154 7.53638 11.2983 6.7526C11.3413 6.70927 11.4013 6.6766 11.4166 6.5996M16.7376 14.7996C16.6936 14.7679 16.6513 14.7426 16.6149 14.7109C14.9352 13.2465 13.256 11.781 11.5776 10.3146C11.4936 10.2409 11.4423 10.2223 11.3543 10.3146C11.0132 10.6646 10.6668 11.0106 10.3153 11.3526C10.2283 11.4369 10.2319 11.4883 10.3103 11.5759C10.6366 11.9426 10.9549 12.3133 11.2769 12.6826C12.4138 13.9879 13.5502 15.2945 14.6859 16.6023C14.7893 16.7216 14.8413 16.7116 14.9443 16.6066C15.4966 16.0446 16.0563 15.4899 16.6133 14.9326C16.6466 14.8993 16.6799 14.8606 16.7386 14.7993M21.0589 19.3606C21.0599 19.1113 21.0056 18.8648 20.8999 18.6389C20.7943 18.413 20.6399 18.2134 20.4479 18.0543C19.9043 17.5766 19.3556 17.1046 18.8146 16.6233C18.7036 16.5233 18.6423 16.5093 18.5269 16.6273C17.9323 17.2366 17.3269 17.8349 16.7243 18.4369C16.4909 18.6703 16.4909 18.6703 16.7069 18.9199C17.1679 19.4499 17.6213 19.9866 18.0939 20.5059C18.3227 20.7614 18.6247 20.9402 18.9588 21.0177C19.2928 21.0953 19.6427 21.0679 19.9606 20.9393C20.2798 20.8149 20.5546 20.598 20.7498 20.3165C20.945 20.0349 21.0517 19.7015 21.0563 19.3589M8.1776 1.78594C8.1774 1.91052 8.20371 2.03372 8.25481 2.14735C8.3059 2.26097 8.3806 2.36242 8.47394 2.44494C9.41927 3.38672 10.3629 4.32994 11.3049 5.2746C11.5609 5.5306 11.8096 5.79427 12.0766 6.03827C12.1916 6.15168 12.3385 6.22719 12.4977 6.25466C12.6568 6.28213 12.8206 6.26024 12.9669 6.19194C13.1178 6.13508 13.2483 6.03445 13.3416 5.90296C13.4349 5.77148 13.4868 5.61512 13.4906 5.45394C13.4963 5.31889 13.4714 5.18429 13.4177 5.06024C13.364 4.93619 13.283 4.82589 13.1806 4.7376C12.0188 3.58116 10.8592 2.42249 9.7016 1.2616C9.65769 1.21517 9.61082 1.17164 9.56127 1.13127C9.43892 1.02594 9.28795 0.959464 9.12764 0.940345C8.96733 0.921227 8.80496 0.95033 8.66127 1.02394C8.51447 1.08907 8.39022 1.19617 8.30416 1.33177C8.21809 1.46736 8.17406 1.62538 8.1776 1.78594ZM1.79627 8.17727C1.63167 8.17127 1.46915 8.21555 1.33034 8.30422C1.19153 8.39289 1.08303 8.52173 1.01927 8.6736C0.939561 8.82693 0.912277 9.00215 0.941594 9.17245C0.970911 9.34275 1.05521 9.49876 1.1816 9.6166C2.38583 10.831 3.59494 12.0406 4.80894 13.2453C4.88834 13.3236 4.9824 13.3855 5.08574 13.4275C5.18908 13.4695 5.29967 13.4907 5.41121 13.49C5.52275 13.4892 5.63305 13.4665 5.73581 13.4231C5.83856 13.3797 5.93177 13.3165 6.0101 13.2371C6.08844 13.1577 6.15036 13.0636 6.19235 12.9603C6.23433 12.857 6.25555 12.7464 6.25479 12.6348C6.25403 12.5233 6.23131 12.413 6.18793 12.3102C6.14454 12.2075 6.08134 12.1143 6.00194 12.0359C4.80194 10.8279 3.59783 9.62327 2.3896 8.42194C2.31277 8.3423 2.22025 8.27946 2.11789 8.23741C2.01554 8.19535 1.90557 8.17499 1.79494 8.1776M8.30094 11.0776C8.29028 11.1697 8.30964 11.2628 8.35615 11.343C8.40265 11.4232 8.47382 11.4862 8.55905 11.5227C8.64427 11.5592 8.739 11.5672 8.82914 11.5455C8.91927 11.5238 8.99999 11.4735 9.05927 11.4023C9.83705 10.6245 10.6148 9.8456 11.3926 9.0656C11.44 9.02788 11.4789 8.98065 11.5069 8.92696C11.5348 8.87327 11.5513 8.81431 11.5551 8.75389C11.5589 8.69346 11.55 8.63291 11.5289 8.57614C11.5079 8.51937 11.4752 8.46763 11.4329 8.42427C11.3894 8.3822 11.3375 8.34967 11.2807 8.32874C11.2238 8.30782 11.1632 8.29895 11.1028 8.30271C11.0423 8.30648 10.9833 8.32278 10.9295 8.3506C10.8757 8.37841 10.8283 8.41713 10.7903 8.46427C10.0103 9.24205 9.2316 10.0205 8.45427 10.7996C8.36972 10.8697 8.31463 10.9691 8.29994 11.0779M15.9326 18.0126C15.9786 17.9716 16.0219 17.9363 16.0613 17.8969C16.5526 17.4063 17.0456 16.9193 17.5326 16.4226C17.6899 16.2626 17.9899 16.1073 17.9603 15.9353C17.9293 15.7543 17.6473 15.6166 17.4749 15.4599C17.4695 15.4554 17.4642 15.4507 17.4593 15.4456C17.4049 15.3843 17.3593 15.3919 17.3023 15.4499C16.6876 16.0677 16.0715 16.6842 15.4539 17.2993C15.4049 17.3483 15.3686 17.3883 15.4316 17.4573C15.5793 17.6196 15.7206 17.7876 15.8649 17.9529C15.886 17.9742 15.9082 17.9943 15.9316 18.0129" fill="white"/>
<path d="M0.0859375 20.7619C0.10017 20.7384 0.11137 20.7132 0.119271 20.6869C0.170089 20.3919 0.283374 20.1113 0.45153 19.8636C0.619686 19.616 0.83883 19.4072 1.09427 19.2512C1.17327 19.2006 1.2276 19.1746 1.1586 19.0619C1.01908 18.8279 0.945733 18.5604 0.946397 18.2879C0.947061 18.0154 1.02171 17.7483 1.16237 17.5149C1.30304 17.2816 1.50443 17.0908 1.74506 16.963C1.98569 16.8352 2.25651 16.7751 2.5286 16.7892C4.86527 16.8166 7.20294 16.8226 9.53927 16.7869C9.81469 16.7676 10.0901 16.824 10.3358 16.9501C10.5814 17.0761 10.7879 17.267 10.9328 17.502C11.0778 17.737 11.1556 18.0071 11.158 18.2832C11.1604 18.5593 11.0872 18.8308 10.9463 19.0682C10.8973 19.1469 10.9029 19.1829 10.9829 19.2332C11.8186 19.7556 12.0829 20.5429 12.0226 21.4822C12.0129 21.5735 11.9803 21.6608 11.9279 21.7361C11.8754 21.8113 11.8048 21.8722 11.7226 21.9129H0.385937C0.262832 21.8391 0.159802 21.736 0.0859375 21.6129L0.0859375 20.7602M6.0546 21.0602C7.68794 21.0602 9.32294 21.0559 10.9573 21.0656C11.1726 21.0656 11.1856 20.9962 11.1473 20.8209C11.0924 20.5282 10.9365 20.264 10.7069 20.0743C10.4773 19.8847 10.1884 19.7815 9.8906 19.7829C7.33283 19.7796 4.77505 19.7796 2.21727 19.7829C1.91945 19.7818 1.63065 19.8851 1.40112 20.0749C1.17158 20.2646 1.01582 20.5289 0.960937 20.8216C0.922937 20.9972 0.937937 21.0669 1.1526 21.0656C2.78594 21.0556 4.4206 21.0602 6.0546 21.0602ZM6.0526 17.6499C4.87483 17.6499 3.69705 17.6499 2.51927 17.6499C2.42871 17.6381 2.33667 17.6457 2.24927 17.6721C2.16186 17.6986 2.08108 17.7434 2.01229 17.8034C1.94351 17.8635 1.88828 17.9375 1.85029 18.0206C1.81229 18.1036 1.7924 18.1938 1.79192 18.2851C1.79145 18.3765 1.8104 18.4668 1.84753 18.5503C1.88465 18.6337 1.9391 18.7083 2.00726 18.7691C2.07541 18.8299 2.15572 18.8755 2.24285 18.9029C2.32997 18.9303 2.42193 18.9388 2.5126 18.9279C4.86816 18.9279 7.22438 18.9279 9.58127 18.9279C9.67238 18.9407 9.76518 18.9339 9.85343 18.9079C9.94169 18.8819 10.0234 18.8373 10.093 18.7771C10.1626 18.7169 10.2185 18.6425 10.257 18.559C10.2954 18.4754 10.3156 18.3846 10.3161 18.2926C10.3166 18.2005 10.2973 18.1095 10.2597 18.0255C10.2221 17.9416 10.167 17.8666 10.098 17.8057C10.0291 17.7448 9.94786 17.6994 9.85988 17.6724C9.7719 17.6455 9.67918 17.6377 9.58794 17.6496C8.41016 17.6496 7.23238 17.6496 6.0546 17.6496" fill="white"/>
<path d="M8.23938 4.86037C8.22757 4.96703 8.17546 5.06517 8.09371 5.1347C7.51138 5.7177 6.93071 6.30137 6.34505 6.88203C6.30729 6.92854 6.26018 6.96659 6.20677 6.99372C6.15336 7.02084 6.09485 7.03643 6.03502 7.03948C5.9752 7.04253 5.9154 7.03297 5.85951 7.01142C5.80362 6.98986 5.75288 6.9568 5.7106 6.91437C5.66831 6.87194 5.63542 6.8211 5.61405 6.76514C5.59268 6.70918 5.58332 6.64935 5.58657 6.58953C5.58981 6.52972 5.6056 6.47125 5.6329 6.41793C5.66021 6.36462 5.69841 6.31763 5.74505 6.28003C6.32505 5.6947 6.90971 5.11337 7.49238 4.53103C7.55212 4.46177 7.63252 4.4135 7.72174 4.39333C7.81096 4.37316 7.90429 4.38215 7.98802 4.41898C8.07175 4.45581 8.14145 4.51853 8.18688 4.59792C8.2323 4.67731 8.25106 4.76919 8.24038 4.86003" fill="white"/>
<path d="M4.79399 8.23951C4.73891 8.23931 4.68443 8.22809 4.63376 8.2065C4.58309 8.18492 4.53725 8.15341 4.49895 8.11383C4.46064 8.07425 4.43065 8.02741 4.41074 7.97606C4.39082 7.92471 4.38139 7.86989 4.38299 7.81484C4.38343 7.70365 4.42784 7.59714 4.50653 7.51858C4.58522 7.44001 4.69179 7.39577 4.80299 7.39551C4.85987 7.39607 4.91608 7.40789 4.96838 7.43028C5.02067 7.45268 5.06802 7.4852 5.10768 7.52598C5.14734 7.56676 5.17854 7.61499 5.19948 7.66788C5.22041 7.72078 5.23067 7.77729 5.22965 7.83417C5.22479 7.9454 5.17638 8.05026 5.09487 8.1261C5.01335 8.20194 4.90528 8.24268 4.79399 8.23951Z" fill="white"/>
</g>
</g>
<defs>
<clipPath id="clip0_17012_5328">
<rect width="22" height="22" fill="white"/>
</clipPath>
</defs>
</svg>
