<svg width="22" height="22" viewBox="0 0 22 22" fill="none" xmlns="http://www.w3.org/2000/svg">
<g clip-path="url(#clip0_17009_5259)">
<mask id="mask0_17009_5259" style="mask-type:luminance" maskUnits="userSpaceOnUse" x="0" y="0" width="22" height="22">
<path d="M21.7592 0H0V22H21.7592V0Z" fill="white"/>
</mask>
<g mask="url(#mask0_17009_5259)">
<path d="M16.122 0C16.1542 0.0502857 16.2107 0.0392857 16.2571 0.0518571C16.5903 0.136373 16.8864 0.328032 17.1 0.597343C17.3136 0.866653 17.4328 1.19869 17.4392 1.54236C17.4581 2.97393 17.4479 4.40589 17.4455 5.83786C17.4514 5.88446 17.447 5.93179 17.4327 5.97653C17.4184 6.02126 17.3944 6.06231 17.3625 6.0968C17.3306 6.13128 17.2915 6.15836 17.248 6.17613C17.2046 6.19391 17.1577 6.20194 17.1108 6.19968C16.9144 6.19339 16.804 6.06139 16.8036 5.81586C16.8023 4.46286 16.8023 3.10973 16.8036 1.75646C16.8259 1.60599 16.8128 1.45239 16.7654 1.30786C16.7179 1.16334 16.6374 1.03187 16.5302 0.923929C16.423 0.815984 16.2921 0.734535 16.148 0.686058C16.0038 0.63758 15.8503 0.623412 15.6996 0.644679H5.04575C4.71025 0.644679 4.71025 0.644679 4.71025 0.981357C4.71025 1.79771 4.68786 2.61446 4.71654 3.42964C4.73405 3.60298 4.71292 3.77805 4.65465 3.94225C4.59639 4.10644 4.50245 4.25568 4.3796 4.37921C4.25674 4.50274 4.10802 4.5975 3.94415 4.65666C3.78028 4.71583 3.60533 4.73792 3.43189 4.72136C2.5735 4.69661 1.71393 4.72136 0.854751 4.71193C0.694072 4.71193 0.632001 4.75829 0.646537 4.91739C0.654787 5.00971 0.646537 5.10321 0.646537 5.19632C0.646537 10.2293 0.646537 15.2624 0.646537 20.2954C0.620847 20.5332 0.685344 20.772 0.827272 20.9646C0.9692 21.1572 1.17822 21.2894 1.413 21.3353C1.50458 21.351 1.59749 21.3574 1.69036 21.3545C6.37269 21.3545 11.0549 21.3545 15.737 21.3545C15.8805 21.3699 16.0257 21.353 16.1619 21.305C16.2981 21.257 16.4218 21.1792 16.5241 21.0772C16.6263 20.9752 16.7044 20.8516 16.7527 20.7155C16.801 20.5794 16.8182 20.4343 16.8032 20.2907C16.8032 20.1834 16.7992 20.0758 16.8059 19.9685C16.805 19.9272 16.8123 19.8861 16.8275 19.8476C16.8427 19.8091 16.8654 19.7741 16.8943 19.7445C16.9232 19.7149 16.9577 19.6914 16.9959 19.6754C17.034 19.6594 17.0749 19.6511 17.1163 19.6511C17.1969 19.6464 17.276 19.6737 17.3365 19.7271C17.3971 19.7806 17.434 19.8558 17.4392 19.9363C17.5512 20.9629 17.11 21.7619 16.1365 21.9713C16.1163 21.9783 16.097 21.9878 16.0791 21.9996H1.34072C1.32972 21.991 1.31989 21.9776 1.30772 21.9741C0.914833 21.9041 0.56262 21.6889 0.320947 21.3714C0.0792747 21.0538 -0.0341991 20.657 0.00303665 20.2596C0.00303665 15.192 0.00159617 10.1242 -0.00128478 5.05607C-0.00797608 4.7989 0.0396896 4.54322 0.138596 4.30574C0.237502 4.06825 0.38542 3.85432 0.572679 3.67793C1.54147 2.72381 2.50252 1.7621 3.45586 0.792786C3.76956 0.419675 4.18381 0.144506 4.64936 0L16.122 0ZM1.18043 4.06961C1.97714 4.06961 2.78446 4.07589 3.59179 4.06607C3.65542 4.07011 3.71918 4.06041 3.77873 4.03764C3.83829 4.01487 3.89225 3.97956 3.93697 3.9341C3.98168 3.88864 4.01609 3.8341 4.03787 3.77418C4.05966 3.71425 4.0683 3.65034 4.06321 3.58679C4.07107 2.80696 4.06636 2.02675 4.06557 1.24654C4.06489 1.22838 4.06172 1.2104 4.05614 1.19311L1.18043 4.06961Z" fill="white"/>
<path d="M21.7558 10.783C21.7607 11.0289 21.6908 11.2706 21.5554 11.476C21.473 11.5938 21.4288 11.7341 21.4288 11.8778C21.4288 12.0216 21.473 12.1619 21.5554 12.2797C21.6583 12.4381 21.7246 12.6175 21.7494 12.8047C21.7743 12.9919 21.7571 13.1824 21.6992 13.3621C21.6413 13.5419 21.544 13.7065 21.4145 13.8439C21.2849 13.9814 21.1264 14.0883 20.9504 14.1568C20.8125 14.2073 20.6929 14.2979 20.607 14.4169C20.521 14.5359 20.4726 14.6779 20.468 14.8247C20.4558 15.0884 20.3588 15.3411 20.1914 15.5453C20.024 15.7494 19.7951 15.8941 19.5389 15.9577C19.5116 15.9608 19.4852 15.9695 19.4613 15.9833C19.4375 15.9971 19.4168 16.0156 19.4004 16.0377C19.384 16.0597 19.3723 16.085 19.3661 16.1117C19.3598 16.1385 19.3591 16.1663 19.364 16.1934C19.369 17.0739 19.369 17.9546 19.364 18.8353C19.3759 18.9263 19.3695 19.0188 19.3453 19.1073C19.3212 19.1959 19.2797 19.2787 19.2232 19.3511C19.1668 19.4235 19.0966 19.484 19.0167 19.529C18.9367 19.5741 18.8486 19.6028 18.7575 19.6136C18.5851 19.6312 18.412 19.5866 18.2696 19.4879C17.9352 19.2808 17.5978 19.0785 17.2666 18.8656C17.2262 18.8324 17.1756 18.814 17.1233 18.8135C17.071 18.813 17.0201 18.8304 16.979 18.8628C16.6486 19.0762 16.3088 19.2746 15.9757 19.4839C15.8681 19.5625 15.7403 19.6085 15.6074 19.6164C15.4744 19.6243 15.342 19.5938 15.226 19.5285C15.1099 19.4632 15.015 19.366 14.9527 19.2483C14.8904 19.1306 14.8632 18.9975 14.8745 18.8648C14.878 17.9699 14.8745 17.075 14.878 16.18C14.878 16.0563 14.8541 16.0009 14.7166 15.964C14.4569 15.8996 14.2248 15.7536 14.0543 15.5476C13.8837 15.3415 13.7837 15.0862 13.769 14.8192C13.7656 14.672 13.7177 14.5294 13.6314 14.4101C13.5452 14.2909 13.4248 14.2006 13.2862 14.1513C13.1118 14.0835 12.9546 13.9778 12.826 13.8418C12.6975 13.7059 12.6007 13.5431 12.5427 13.3652C12.4847 13.1873 12.4669 12.9987 12.4907 12.8131C12.5144 12.6275 12.5791 12.4495 12.68 12.2919C12.7628 12.1705 12.8075 12.027 12.8082 11.88C12.8089 11.733 12.7656 11.5891 12.6839 11.4669C12.5822 11.3099 12.5166 11.1323 12.4919 10.9469C12.4671 10.7615 12.4838 10.573 12.5408 10.3948C12.5977 10.2166 12.6934 10.0533 12.8211 9.91665C12.9488 9.77996 13.1052 9.67331 13.2791 9.60438C13.4202 9.55287 13.5425 9.46017 13.6303 9.33828C13.7181 9.2164 13.7672 9.07095 13.7713 8.92081C13.7838 8.73595 13.8367 8.55609 13.9263 8.39394C14.0159 8.23178 14.1401 8.0913 14.29 7.98243C14.4399 7.87356 14.6119 7.79896 14.7938 7.7639C14.9757 7.72884 15.1631 7.73419 15.3428 7.77956C15.4908 7.82074 15.6477 7.81679 15.7934 7.76822C15.9391 7.71964 16.067 7.62865 16.1607 7.50692C16.2796 7.36727 16.4274 7.25518 16.594 7.17843C16.7606 7.10169 16.9419 7.06213 17.1253 7.0625C17.3087 7.06288 17.4898 7.10317 17.6561 7.1806C17.8223 7.25802 17.9697 7.37071 18.088 7.51084C18.182 7.63256 18.3104 7.72318 18.4566 7.7709C18.6027 7.81862 18.7599 7.82122 18.9076 7.77838C19.0872 7.73336 19.2745 7.72857 19.4562 7.76437C19.6379 7.80016 19.8094 7.87564 19.9585 7.98543C20.1076 8.09521 20.2307 8.23658 20.3188 8.39944C20.4069 8.56229 20.458 8.74261 20.4684 8.92749C20.4746 9.07792 20.5257 9.22305 20.6152 9.34413C20.7047 9.4652 20.8284 9.55667 20.9704 9.60673C21.2051 9.69976 21.406 9.86175 21.5467 10.0713C21.6874 10.2809 21.7613 10.5282 21.7585 10.7806M21.1119 10.7771C21.114 10.6506 21.0769 10.5266 21.0056 10.4221C20.9343 10.3177 20.8324 10.2378 20.7139 10.1937C20.4656 10.1069 20.2488 9.94791 20.0915 9.73706C19.9342 9.52621 19.8436 9.27315 19.8312 9.01038C19.8315 8.90917 19.8075 8.80937 19.761 8.71946C19.7146 8.62954 19.6471 8.55218 19.5643 8.49394C19.4815 8.4357 19.3859 8.3983 19.2856 8.38494C19.1853 8.37157 19.0832 8.38263 18.9881 8.41717C18.7445 8.48258 18.4872 8.47533 18.2477 8.39631C18.0082 8.31729 17.797 8.16996 17.6402 7.97245C17.5812 7.89013 17.5035 7.82305 17.4134 7.77678C17.3233 7.7305 17.2235 7.70637 17.1222 7.70637C17.0209 7.70637 16.9211 7.7305 16.831 7.77678C16.741 7.82305 16.6632 7.89013 16.6042 7.97245C16.4477 8.17021 16.2366 8.31773 15.9971 8.39678C15.7576 8.47582 15.5002 8.48291 15.2567 8.41717C15.1576 8.38358 15.0518 8.3746 14.9484 8.39101C14.845 8.40742 14.7472 8.44872 14.6634 8.51135C14.5795 8.57398 14.5121 8.65607 14.4671 8.75053C14.422 8.845 14.4006 8.94901 14.4046 9.0536C14.3936 9.2913 14.3148 9.52088 14.1774 9.71519C14.0401 9.9095 13.8499 10.0604 13.6295 10.1501C13.5199 10.1762 13.4189 10.23 13.3361 10.3063C13.2533 10.3827 13.1915 10.4791 13.1567 10.5862C13.1219 10.6934 13.1152 10.8076 13.1372 10.9181C13.1593 11.0286 13.2093 11.1315 13.2826 11.2171C13.41 11.4104 13.478 11.6369 13.478 11.8684C13.478 12.1 13.41 12.3264 13.2826 12.5198C13.2149 12.6098 13.1698 12.7147 13.1512 12.8258C13.1325 12.9369 13.1409 13.0509 13.1756 13.1581C13.2102 13.2652 13.2702 13.3625 13.3504 13.4416C13.4305 13.5208 13.5286 13.5794 13.6362 13.6127C13.8537 13.6926 14.0426 13.8352 14.179 14.0225C14.3154 14.2098 14.3933 14.4333 14.4027 14.6648C14.3947 14.7768 14.4153 14.889 14.4626 14.9909C14.5099 15.0928 14.5823 15.181 14.673 15.2472C14.7637 15.3134 14.8698 15.3555 14.9813 15.3695C15.0927 15.3835 15.2059 15.3689 15.3102 15.3271C15.534 15.2713 15.769 15.2789 15.9888 15.3491C16.2086 15.4192 16.4046 15.5492 16.5547 15.7243C16.9523 16.1565 17.2906 16.1565 17.694 15.7243C17.8445 15.5495 18.0404 15.4199 18.2602 15.3498C18.4799 15.2798 18.7147 15.2721 18.9386 15.3275C19.4796 15.4434 19.7773 15.2376 19.8422 14.6876C19.8604 14.4436 19.9476 14.2098 20.0937 14.0136C20.2398 13.8174 20.4387 13.6667 20.6672 13.5793C20.7654 13.5489 20.8549 13.4953 20.9281 13.423C21.0014 13.3508 21.0561 13.262 21.0879 13.1641C21.1196 13.0663 21.1274 12.9622 21.1105 12.8608C21.0936 12.7593 21.0526 12.6634 20.9909 12.5811C20.8517 12.3706 20.7782 12.1236 20.7794 11.8713C20.7807 11.619 20.8567 11.3727 20.9979 11.1636C21.0761 11.0508 21.1166 10.9162 21.1138 10.779M15.5239 17.434C15.5239 17.8772 15.5239 18.3207 15.5239 18.7642C15.5239 18.8247 15.4909 18.9041 15.5526 18.943C15.6142 18.9819 15.6704 18.9147 15.7231 18.8837C16.0531 18.6841 16.3834 18.4845 16.7087 18.2771C16.8288 18.1908 16.9727 18.1441 17.1205 18.1432C17.2683 18.1424 17.4127 18.1875 17.5337 18.2724C17.848 18.4693 18.1644 18.6639 18.4829 18.8562C18.5477 18.8955 18.6145 18.9842 18.6868 18.9485C18.759 18.9127 18.7233 18.8051 18.7237 18.7301C18.7261 17.9007 18.7272 17.071 18.7237 16.2417C18.7237 16.1431 18.7881 16.0024 18.6714 15.951C18.6121 15.9356 18.5499 15.9346 18.4902 15.9483C18.4304 15.962 18.3748 15.9899 18.3281 16.0296C18.2625 16.0725 18.2025 16.1236 18.1497 16.1816C18.0304 16.3394 17.8761 16.4675 17.699 16.5557C17.522 16.644 17.3268 16.69 17.129 16.6903C16.9311 16.6906 16.7359 16.645 16.5586 16.5573C16.3812 16.4695 16.2266 16.3418 16.1069 16.1843C16.0042 16.064 15.865 15.9804 15.7105 15.9463C15.5808 15.9196 15.5184 15.9463 15.5223 16.1034C15.5329 16.5466 15.5258 16.9901 15.5258 17.4332" fill="white"/>
<path d="M10.6884 2.22707C11.7622 2.22707 12.836 2.22707 13.9098 2.22707C14.0173 2.21381 14.1264 2.22509 14.229 2.26005C14.3315 2.29501 14.4248 2.35275 14.5018 2.42893C14.5788 2.50511 14.6376 2.59775 14.6736 2.6999C14.7097 2.80204 14.7222 2.91103 14.7101 3.01868C14.7116 3.31201 14.7116 3.60548 14.7101 3.89907C14.7235 4.01026 14.7113 4.12303 14.6744 4.22879C14.6376 4.33454 14.577 4.43047 14.4974 4.50924C14.4178 4.58801 14.3213 4.64754 14.2151 4.68327C14.109 4.71901 13.9961 4.73001 13.8851 4.71543C12.6253 4.717 11.3654 4.717 10.1054 4.71543C9.90503 4.71543 9.70428 4.71896 9.50392 4.71543C9.26821 4.70993 9.1256 4.58854 9.12167 4.39682C9.11735 4.19843 9.2635 4.07311 9.51453 4.07272C10.9461 4.07272 12.3777 4.068 13.8096 4.07625C14.0179 4.07625 14.0846 4.01654 14.0725 3.8095C14.0556 3.56004 14.0626 3.30861 14.0725 3.05836C14.0768 2.92282 14.0375 2.869 13.8921 2.869C11.7589 2.87267 9.62571 2.87267 7.49249 2.869C7.35735 2.869 7.29607 2.90436 7.30196 3.04932C7.31021 3.32825 7.30942 3.60757 7.30196 3.88689C7.29842 4.02832 7.3546 4.07939 7.4921 4.07311C7.64217 4.06643 7.79264 4.06918 7.9431 4.07311C8.02343 4.07035 8.10158 4.0995 8.16048 4.1542C8.21937 4.2089 8.25421 4.28469 8.25739 4.365C8.26165 4.4063 8.25753 4.44803 8.24527 4.4877C8.23301 4.52737 8.21287 4.56415 8.18606 4.59585C8.15924 4.62755 8.1263 4.6535 8.08921 4.67216C8.05212 4.69082 8.01164 4.70179 7.97021 4.70443C7.73512 4.73192 7.49748 4.72928 7.26307 4.69657C7.09786 4.67472 6.94618 4.59375 6.8361 4.46864C6.72602 4.34354 6.665 4.18278 6.66435 4.01614C6.65335 3.65864 6.65375 3.30036 6.66435 2.94246C6.6615 2.8453 6.67901 2.74861 6.71575 2.65861C6.75249 2.56862 6.80765 2.4873 6.87768 2.41989C6.94772 2.35248 7.03109 2.30046 7.12242 2.26719C7.21376 2.23392 7.31104 2.22012 7.40803 2.22668C8.50332 2.22354 9.5986 2.22668 10.6939 2.22668" fill="white"/>
<path d="M6.85958 12.329C8.19791 12.329 9.53624 12.329 10.8746 12.329C10.9744 12.3149 11.0761 12.3322 11.1657 12.3785C11.2215 12.4118 11.2654 12.462 11.2911 12.5217C11.3168 12.5815 11.3229 12.6478 11.3087 12.7113C11.2985 12.7756 11.2679 12.835 11.2213 12.8806C11.1748 12.9262 11.1148 12.9555 11.0502 12.9643C10.9793 12.9742 10.9075 12.977 10.8361 12.9725H2.91372C2.88504 12.9725 2.85636 12.9725 2.82769 12.9725C2.57901 12.9686 2.42736 12.8472 2.42579 12.6515C2.42422 12.4559 2.57351 12.3294 2.82297 12.329C3.88211 12.3274 4.94126 12.3274 6.0004 12.329H6.85958Z" fill="white"/>
<path d="M6.86531 10.7042H2.91474C2.84332 10.7075 2.77174 10.7054 2.70063 10.6979C2.62813 10.6909 2.5607 10.6576 2.51111 10.6042C2.46152 10.5509 2.43321 10.4812 2.43153 10.4084C2.42394 10.3398 2.43997 10.2708 2.47698 10.2126C2.51399 10.1545 2.56975 10.1107 2.63503 10.0886C2.72375 10.0602 2.81739 10.0506 2.91003 10.0603C5.55081 10.0603 8.1916 10.0603 10.8324 10.0603C10.9113 10.0553 10.9904 10.0602 11.0681 10.0748C11.1415 10.0913 11.2066 10.1334 11.2518 10.1935C11.297 10.2536 11.3194 10.3278 11.315 10.4028C11.3105 10.4779 11.2795 10.5489 11.2276 10.6033C11.1756 10.6576 11.106 10.6917 11.0312 10.6995C10.9598 10.7056 10.8882 10.7072 10.8167 10.7042H6.86531Z" fill="white"/>
<path d="M6.88626 14.5955C8.20285 14.5955 9.51945 14.5955 10.836 14.5955C10.9148 14.5916 10.9938 14.5957 11.0718 14.6077C11.1376 14.6229 11.1968 14.6589 11.2405 14.7103C11.2843 14.7618 11.3103 14.826 11.3147 14.8934C11.3191 14.9608 11.3017 15.0279 11.265 15.0846C11.2283 15.1413 11.1743 15.1847 11.111 15.2084C11.0214 15.2321 10.9287 15.2421 10.836 15.2382C8.19552 15.2398 5.55513 15.2398 2.91487 15.2382C2.87912 15.2382 2.84337 15.2382 2.80762 15.2382C2.57583 15.2268 2.42969 15.1011 2.42969 14.9129C2.42969 14.7248 2.57465 14.5959 2.80879 14.5955C3.91796 14.5932 5.02713 14.5932 6.1363 14.5955H6.88744" fill="white"/>
<path d="M6.88508 7.80186C8.20168 7.80186 9.51827 7.80186 10.8349 7.80186C10.9137 7.79854 10.9926 7.80288 11.0706 7.81483C11.1389 7.82437 11.2014 7.85845 11.2465 7.91072C11.2915 7.96299 11.316 8.02987 11.3153 8.09886C11.3258 8.17092 11.3086 8.24426 11.2672 8.30415C11.2258 8.36405 11.1633 8.40608 11.0922 8.42179C11.0086 8.4408 10.9229 8.4486 10.8372 8.44497C8.19697 8.44497 5.5567 8.44497 2.91644 8.44497C2.89483 8.44497 2.87362 8.44497 2.85201 8.44497C2.58369 8.43869 2.43048 8.32122 2.42969 8.12126C2.4289 7.92129 2.58015 7.80147 2.85044 7.80108C4.19558 7.80108 5.54073 7.80108 6.88587 7.80108" fill="white"/>
<path d="M4.82151 17.9123C5.47954 17.9123 6.13758 17.9123 6.79561 17.9123C7.05608 17.9123 7.19436 18.0211 7.20065 18.2215C7.20693 18.4289 7.05726 18.5554 6.79443 18.5558C5.47103 18.5558 4.14775 18.5558 2.82461 18.5558C2.52329 18.5558 2.35318 18.3432 2.45572 18.1071C2.48756 18.0385 2.54094 17.9822 2.60775 17.9467C2.67456 17.9113 2.75113 17.8986 2.82579 17.9107C3.4909 17.9135 4.1564 17.9107 4.82151 17.9107" fill="white"/>
<path d="M17.1176 14.5738C16.5846 14.5729 16.0637 14.414 15.621 14.1172C15.1782 13.8204 14.8333 13.399 14.6298 12.9063C14.4264 12.4135 14.3736 11.8716 14.4781 11.3488C14.5825 10.8261 14.8395 10.3461 15.2167 9.96936C15.5938 9.59265 16.0742 9.33617 16.597 9.23233C17.1199 9.12848 17.6618 9.18194 18.1543 9.38593C18.6468 9.58992 19.0677 9.9353 19.364 10.3784C19.6603 10.8216 19.8186 11.3426 19.8189 11.8757C19.8173 12.5913 19.532 13.2771 19.0257 13.7828C18.5194 14.2885 17.8333 14.573 17.1176 14.5738ZM17.1259 13.9287C17.5309 13.9266 17.9261 13.8047 18.2619 13.5783C18.5977 13.3519 18.8589 13.0312 19.0127 12.6566C19.1665 12.282 19.206 11.8702 19.1261 11.4732C19.0462 11.0762 18.8506 10.7117 18.564 10.4256C18.2773 10.1396 17.9123 9.94485 17.5152 9.8659C17.118 9.78695 16.7063 9.82735 16.332 9.982C15.9577 10.1366 15.6376 10.3986 15.412 10.7349C15.1864 11.0712 15.0653 11.4668 15.0642 11.8717C15.0629 12.1426 15.1153 12.4111 15.2185 12.6615C15.3217 12.912 15.4736 13.1395 15.6654 13.3308C15.8572 13.5222 16.085 13.6735 16.3357 13.7762C16.5864 13.8788 16.855 13.9307 17.1259 13.9287Z" fill="white"/>
</g>
</g>
<defs>
<clipPath id="clip0_17009_5259">
<rect width="21.7592" height="22" fill="white"/>
</clipPath>
</defs>
</svg>
