<svg width="37" height="37" viewBox="0 0 37 37" fill="none" xmlns="http://www.w3.org/2000/svg">
<path d="M20.35 0C20.9836 0 21.5918 0.261313 22.0289 0.7215L29.4289 8.64875C29.8359 9.07887 30.0625 9.65006 30.0625 10.2421V30.0625C30.0625 30.6758 29.8189 31.264 29.3852 31.6977C28.9515 32.1314 28.3633 32.375 27.75 32.375H4.625C4.01169 32.375 3.42349 32.1314 2.98982 31.6977C2.55614 31.264 2.3125 30.6758 2.3125 30.0625V2.3125C2.3125 1.69919 2.55614 1.11099 2.98982 0.677316C3.42349 0.243638 4.01169 0 4.625 0L20.35 0ZM27.75 11.5625H19.6562C19.3496 11.5625 19.0555 11.4407 18.8387 11.2238C18.6218 11.007 18.5 10.7129 18.5 10.4062V2.3125H4.625V30.0625H27.75V11.5625ZM10.4062 25.4375C10.0996 25.4375 9.8055 25.3157 9.58866 25.0988C9.37182 24.882 9.25 24.5879 9.25 24.2812C9.25 23.9746 9.37182 23.6805 9.58866 23.4637C9.8055 23.2468 10.0996 23.125 10.4062 23.125H21.9688C22.2754 23.125 22.5695 23.2468 22.7863 23.4637C23.0032 23.6805 23.125 23.9746 23.125 24.2812C23.125 24.5879 23.0032 24.882 22.7863 25.0988C22.5695 25.3157 22.2754 25.4375 21.9688 25.4375H10.4062ZM10.4062 18.5C10.0996 18.5 9.8055 18.3782 9.58866 18.1613C9.37182 17.9445 9.25 17.6504 9.25 17.3438C9.25 17.0371 9.37182 16.743 9.58866 16.5262C9.8055 16.3093 10.0996 16.1875 10.4062 16.1875H21.9688C22.2754 16.1875 22.5695 16.3093 22.7863 16.5262C23.0032 16.743 23.125 17.0371 23.125 17.3438C23.125 17.6504 23.0032 17.9445 22.7863 18.1613C22.5695 18.3782 22.2754 18.5 21.9688 18.5H10.4062ZM12.7188 37C12.4121 37 12.118 36.8782 11.9012 36.6613C11.6843 36.4445 11.5625 36.1504 11.5625 35.8438C11.5625 35.5371 11.6843 35.243 11.9012 35.0262C12.118 34.8093 12.4121 34.6875 12.7188 34.6875H32.375V15.0312C32.375 14.7246 32.4968 14.4305 32.7137 14.2137C32.9305 13.9968 33.2246 13.875 33.5312 13.875C33.8379 13.875 34.132 13.9968 34.3488 14.2137C34.5657 14.4305 34.6875 14.7246 34.6875 15.0312V34.6875C34.6875 35.3008 34.4439 35.889 34.0102 36.3227C33.5765 36.7564 32.9883 37 32.375 37H12.7188Z" fill="#EC9700"/>
</svg>
