<svg width="33" height="33" viewBox="0 0 33 33" fill="none" xmlns="http://www.w3.org/2000/svg">
<path d="M24.75 4.12501V4.12501C25.7967 4.12501 26.32 4.12501 26.7458 4.25419C27.7047 4.54504 28.455 5.29535 28.7458 6.25416C28.875 6.68 28.875 7.20334 28.875 8.25001L28.875 11.375C28.875 11.8464 28.875 12.0821 28.7286 12.2286C28.5821 12.375 28.3464 12.375 27.875 12.375L20.625 12.375M24.75 4.12501V4.12501C23.7033 4.12501 23.18 4.12501 22.7541 4.25419C21.7953 4.54504 21.045 5.29535 20.7542 6.25416C20.625 6.68 20.625 7.20334 20.625 8.25001L20.625 12.375M24.75 4.12501L8.125 4.12501C6.23938 4.12501 5.29657 4.12501 4.71079 4.7108C4.125 5.29658 4.125 6.23939 4.125 8.12501L4.125 28.875L8.25 27.5L12.375 28.875L16.5 27.5L20.625 28.875L20.625 12.375" stroke="#EC9700" stroke-width="1.5"/>
<path d="M9.625 9.625L15.125 9.625" stroke="#EC9700" stroke-width="1.5" stroke-linecap="round"/>
<path d="M11 15.125H9.625" stroke="#EC9700" stroke-width="1.5" stroke-linecap="round"/>
<path d="M9.625 20.625L13.75 20.625" stroke="#EC9700" stroke-width="1.5" stroke-linecap="round"/>
</svg>
