<svg width="20" height="22" viewBox="0 0 20 22" fill="none" xmlns="http://www.w3.org/2000/svg">
<g clip-path="url(#clip0_17012_5359)">
<mask id="mask0_17012_5359" style="mask-type:luminance" maskUnits="userSpaceOnUse" x="0" y="0" width="20" height="22">
<path d="M19.0813 0H0V22H19.0813V0Z" fill="white"/>
</mask>
<g mask="url(#mask0_17012_5359)">
<path d="M4.55553 21.9996C4.09356 21.9255 3.67203 21.6922 3.36386 21.3402C3.06538 20.9595 2.91415 20.4841 2.93792 20.0009C2.93792 15.0395 2.93792 10.0781 2.93792 5.1167C2.93792 4.76837 2.93792 4.76837 2.58714 4.76837C1.79269 4.76837 0.99825 4.76379 0.203806 4.77234C0.0409444 4.77387 0 4.72987 0 4.56915C0.00794444 3.68884 0 2.80823 0.00488889 1.92762C-0.00944386 1.67053 0.0307054 1.4133 0.122706 1.17281C0.214707 0.93231 0.356484 0.713965 0.538747 0.532077C0.72101 0.350188 0.939647 0.208862 1.18033 0.117357C1.42102 0.0258514 1.67832 -0.013768 1.93539 0.00109424C6.38856 -0.0011465 10.8417 -0.00165576 15.2949 -0.000433533C16.4786 -0.000433533 17.2352 0.761622 17.2355 1.95512C17.2369 7.31742 17.2369 12.6797 17.2355 18.042C17.2355 18.3717 17.1912 18.3338 17.5361 18.3353C17.9945 18.3375 18.4528 18.3353 18.9111 18.3353C19.0028 18.3353 19.0804 18.332 19.0764 18.4646C19.0575 19.1081 19.1156 19.7537 19.0459 20.3957C19.0064 20.7831 18.8403 21.1467 18.5735 21.4303C18.3066 21.7139 17.9537 21.9018 17.5694 21.9647C17.5281 21.9741 17.4873 21.9858 17.4472 21.9996H4.55553ZM3.322 0.767733C3.59118 1.19143 3.71507 1.69126 3.67492 2.19162C3.67044 8.0921 3.66962 13.9926 3.67247 19.8931C3.67247 20.0217 3.67583 20.151 3.68806 20.279C3.713 20.5461 3.83569 20.7946 4.03259 20.9768C4.22949 21.159 4.48673 21.2621 4.75497 21.2663C5.02321 21.2705 5.28356 21.1755 5.48607 20.9996C5.68858 20.8236 5.819 20.5791 5.85231 20.3129C5.91006 19.7708 5.86697 19.2257 5.87492 18.6818C5.87981 18.3366 5.87492 18.3363 6.21103 18.3363C9.55523 18.3363 12.8993 18.3377 16.2433 18.3405C16.4395 18.3405 16.5098 18.31 16.5095 18.0894C16.5025 12.7187 16.5004 7.34818 16.5031 1.97773C16.5077 1.84913 16.4988 1.72039 16.4765 1.59365C16.4221 1.33072 16.2722 1.09726 16.0558 0.938309C15.8394 0.779358 15.5718 0.706182 15.3047 0.7329C11.3805 0.7329 7.45637 0.7329 3.53222 0.7329C3.46027 0.719491 3.38589 0.732013 3.322 0.767733ZM6.23119 21.2675H17.1297C17.1799 21.2675 17.23 21.2675 17.2801 21.2647C17.5406 21.2603 17.7905 21.1608 17.9827 20.9849C18.1749 20.8091 18.2961 20.5689 18.3236 20.3098C18.3499 19.9889 18.3562 19.6666 18.3422 19.3449C18.3468 19.0699 18.3422 19.0699 18.0672 19.0699C14.3453 19.0699 10.6235 19.0699 6.90158 19.0699C6.56547 19.0699 6.61558 19.0244 6.60886 19.3684C6.59664 20.0067 6.69839 20.6652 6.23058 21.2671M2.937 2.81801C2.937 2.51765 2.937 2.21729 2.937 1.91693C2.94514 1.7235 2.9093 1.53075 2.83219 1.35318C2.72571 1.13234 2.5481 0.95369 2.32789 0.845912C2.10768 0.738135 1.85764 0.70748 1.61792 0.758872C1.36166 0.806598 1.13138 0.945586 0.969747 1.15009C0.808113 1.35459 0.726076 1.61074 0.738833 1.87109C0.729361 2.53598 0.738833 3.20118 0.733944 3.86637C0.733944 3.9944 0.7645 4.04054 0.901083 4.03932C1.52319 4.03259 2.14531 4.03259 2.76742 4.03932C2.89789 4.03932 2.94219 4.00143 2.93944 3.87004C2.93211 3.51987 2.937 3.1694 2.937 2.81893" fill="white"/>
<path d="M12.4716 3.29925C12.5112 4.29881 12.2366 5.28564 11.6864 6.12106C11.2463 6.76846 10.6708 7.31248 9.99968 7.71545C9.97205 7.73626 9.93818 7.74708 9.9036 7.74614C9.86901 7.74519 9.83578 7.73254 9.80932 7.71025C8.23204 6.71995 7.36488 5.32111 7.34563 3.43461C7.34226 3.11256 7.35082 2.7902 7.34226 2.46814C7.33832 2.4441 7.33921 2.41951 7.34487 2.39581C7.35054 2.37211 7.36087 2.34978 7.37526 2.33012C7.38966 2.31047 7.40783 2.29387 7.42871 2.28132C7.44959 2.26876 7.47277 2.2605 7.49688 2.257C8.25863 2.01256 9.01854 1.75986 9.77785 1.50686C9.8652 1.47717 9.96009 1.47825 10.0467 1.50992C10.7996 1.75956 11.5525 2.0092 12.3079 2.2515C12.4301 2.29061 12.4808 2.34317 12.475 2.4767C12.464 2.71961 12.4719 2.96345 12.4719 3.29895M11.7386 3.44286C11.7323 3.30031 11.7334 3.15752 11.742 3.01509C11.7578 2.86414 11.6955 2.8012 11.5586 2.75811C11.0624 2.5977 10.5689 2.42842 10.077 2.25547C9.97123 2.21416 9.85396 2.21329 9.7476 2.25303C9.37085 2.38778 8.99105 2.51336 8.61246 2.64292C8.07713 2.82625 8.0756 2.82625 8.07957 3.39459C8.05919 4.05976 8.20499 4.71952 8.50375 5.31418C8.80252 5.90883 9.24483 6.41961 9.79068 6.80031C9.8101 6.81966 9.83323 6.83488 9.85868 6.84506C9.88413 6.85524 9.91138 6.86016 9.93878 6.85953C9.96619 6.85891 9.99318 6.85274 10.0181 6.84141C10.0431 6.83007 10.0655 6.81381 10.084 6.79359C10.6094 6.40988 11.0343 5.90499 11.3227 5.32183C11.6111 4.73867 11.7544 4.0945 11.7404 3.44409" fill="white"/>
<path d="M11.218 14.6638C12.6569 14.6638 14.096 14.6666 15.5349 14.6602C15.7118 14.6602 15.7851 14.6861 15.7793 14.8899C15.7638 15.3978 15.7757 15.3981 15.2599 15.3981C12.4606 15.3981 9.6614 15.3998 6.86231 15.4033C6.65056 15.4033 6.59984 15.3455 6.60595 15.1414C6.62092 14.6644 6.61023 14.6641 7.09484 14.6641H11.2198" fill="white"/>
<path d="M8.25087 12.4636C7.04118 12.4636 5.83148 12.4606 4.62179 12.467C4.45923 12.467 4.40026 12.4325 4.4024 12.2571C4.40851 11.7315 4.40057 11.7312 4.92612 11.7312C7.24529 11.7312 9.56455 11.73 11.8839 11.7275C12.0566 11.7275 12.1171 11.7648 12.1134 11.9488C12.1033 12.4633 12.1134 12.4633 11.601 12.4633H8.25087" fill="white"/>
<path d="M12.1025 11.0004C10.9567 11.0004 9.81086 10.9971 8.66564 11.0041C8.49483 11.0041 8.43036 10.972 8.43372 10.785C8.4435 10.2686 8.43372 10.2686 8.94461 10.2686C11.143 10.2686 13.3412 10.2673 15.5394 10.2646C15.7227 10.2646 15.7839 10.2976 15.7784 10.4953C15.7631 11.0004 15.7741 11.0007 15.2589 11.0007L12.1025 11.0004Z" fill="white"/>
<path d="M12.0998 13.9299C10.9545 13.9299 9.80809 13.9263 8.66409 13.9339C8.48993 13.9339 8.43065 13.8939 8.43371 13.7102C8.44287 13.196 8.43371 13.196 8.94918 13.196C11.1464 13.196 13.344 13.1987 15.5412 13.1914C15.7307 13.1914 15.7823 13.2366 15.7774 13.427C15.7646 13.9296 15.7741 13.9299 15.2775 13.9299H12.0998Z" fill="white"/>
<path d="M7.34699 16.1323C8.25541 16.1323 9.16413 16.1359 10.0725 16.1289C10.2324 16.1289 10.2776 16.1711 10.2757 16.3327C10.2699 16.868 10.2757 16.8683 9.74224 16.8683C8.04672 16.8683 6.35058 16.8653 4.65596 16.8723C4.46316 16.8723 4.39716 16.8271 4.40266 16.6248C4.41549 16.1326 4.40541 16.1323 4.90041 16.1323H7.34699Z" fill="white"/>
<path d="M9.9305 8.43012C10.7097 8.43012 11.4888 8.43409 12.268 8.42676C12.4244 8.42676 12.4767 8.46312 12.4755 8.62781C12.4721 9.16345 12.4791 9.16345 11.9432 9.16345C10.4851 9.16345 9.02667 9.1604 7.56856 9.16742C7.3947 9.16742 7.33634 9.13015 7.34 8.9462C7.3507 8.43042 7.34184 8.43012 7.85028 8.43012H9.9305Z" fill="white"/>
<path d="M13.4086 16.132C14.1245 16.132 14.8404 16.1356 15.556 16.1289C15.7131 16.1289 15.7809 16.154 15.7779 16.3364C15.7684 16.8677 15.7779 16.8677 15.2392 16.8677C13.9076 16.8677 12.5763 16.865 11.245 16.8711C11.0708 16.8711 10.9929 16.8479 11.0005 16.6419C11.0164 16.1323 11.0042 16.132 11.52 16.132H13.4098" fill="white"/>
<path d="M6.05919 11.0001C5.56541 11.0001 5.07163 10.9961 4.57786 11.0029C4.44769 11.0047 4.40888 10.9662 4.40583 10.8348C4.39269 10.2683 4.3881 10.2683 4.95033 10.2683C5.80191 10.2683 6.65349 10.2726 7.50508 10.2646C7.66519 10.2646 7.7101 10.305 7.70858 10.4666C7.70399 11.0004 7.71102 11.0004 7.17538 11.0004H6.05919" fill="white"/>
<path d="M6.03443 13.93C5.54829 13.93 5.06215 13.926 4.57601 13.9324C4.44707 13.934 4.40582 13.8958 4.40246 13.7638C4.38779 13.1957 4.38351 13.196 4.94879 13.196C5.79946 13.196 6.65043 13.2003 7.5011 13.1924C7.66243 13.1924 7.70643 13.2361 7.70551 13.3965C7.70246 13.93 7.70888 13.9303 7.1714 13.9303H6.03474" fill="white"/>
<path d="M14.3024 12.4643C13.8728 12.4643 13.4432 12.4604 13.0136 12.4668C12.8898 12.4686 12.8403 12.4439 12.8382 12.3039C12.8287 11.7322 12.8232 11.7322 13.3977 11.7322C14.1279 11.7322 14.8585 11.735 15.5888 11.7295C15.7217 11.7295 15.7721 11.7558 15.7743 11.9037C15.7776 12.4644 15.7834 12.4643 15.2264 12.4643H14.3027" fill="white"/>
<path d="M5.12347 15.3971C4.93769 15.3971 4.7513 15.3912 4.56583 15.3989C4.44361 15.4041 4.4103 15.3561 4.40572 15.2379C4.3828 14.6631 4.37944 14.6631 4.94717 14.6631C5.20444 14.6631 5.46203 14.668 5.7193 14.6613C5.84153 14.6582 5.87514 14.7059 5.87941 14.8241C5.90141 15.3974 5.90447 15.3974 5.33797 15.3974H5.12408" fill="white"/>
<path d="M10.4627 3.64849C11.1 3.74016 11.067 3.56569 10.8965 4.22905C10.728 4.82477 10.3733 5.35093 9.88424 5.73055C9.79257 5.80663 9.73879 5.81855 9.6731 5.70396C9.58479 5.54935 9.4259 5.41185 9.40054 5.25113C9.37396 5.08155 9.60618 5.01371 9.71099 4.88752C9.97064 4.59103 10.1489 4.23222 10.2283 3.84619C10.2588 3.68546 10.3077 3.59044 10.4627 3.64757" fill="white"/>
</g>
</g>
<defs>
<clipPath id="clip0_17012_5359">
<rect width="19.0813" height="22" fill="white"/>
</clipPath>
</defs>
</svg>
