<svg width="24" height="22" viewBox="0 0 24 22" fill="none" xmlns="http://www.w3.org/2000/svg">
<g clip-path="url(#clip0_17012_5432)">
<mask id="mask0_17012_5432" style="mask-type:luminance" maskUnits="userSpaceOnUse" x="0" y="0" width="24" height="22">
<path d="M23.6201 0H0V22H23.6201V0Z" fill="white"/>
</mask>
<g mask="url(#mask0_17012_5432)">
<path d="M9.97784 -0.000440743C11.4888 -0.000440743 12.9997 -0.000440743 14.5104 -0.000440743C14.8118 -0.0313352 15.1139 0.0504324 15.3586 0.229099C15.6033 0.407765 15.7731 0.670681 15.8354 0.96716C15.9129 1.2082 15.9387 1.53773 16.1454 1.63828C16.332 1.72884 16.6192 1.60695 16.8626 1.58525C18.4523 1.46963 20.0267 1.96124 21.2682 2.96089C22.5097 3.96054 23.3258 5.39384 23.5519 6.97163C23.7781 8.54941 23.3974 10.1543 22.4867 11.4624C21.576 12.7705 20.2031 13.6846 18.6449 14.0201C18.5766 14.0259 18.5107 14.0486 18.4533 14.0861C18.3959 14.1237 18.3487 14.175 18.3161 14.2353C16.8254 17.0789 14.6213 19.2483 11.933 20.9541C11.3845 21.3023 10.8177 21.6184 10.2433 21.9217C10.1608 21.9713 10.0667 21.998 9.97046 21.9991C9.87426 22.0003 9.77948 21.9758 9.69583 21.9283C7.03893 20.6156 4.72501 18.701 2.93812 16.3369C1.43269 14.3358 0.448097 11.992 0.0728515 9.51613C0.0152048 9.08973 -0.00977531 8.65954 -0.00187068 8.22933C0.00432747 7.14018 -0.00187068 6.05102 0.000539715 4.96152C-0.0266403 4.64586 0.0715752 4.33219 0.27393 4.0884C0.476286 3.8446 0.766503 3.6903 1.08177 3.65888C1.80624 3.56473 2.48459 3.25126 3.0258 2.76052C3.567 2.26979 3.94517 1.62527 4.10957 0.913443C4.17425 0.640648 4.3331 0.399422 4.55816 0.232248C4.78323 0.0650739 5.06006 -0.0173262 5.3399 -0.000440743C6.88577 -0.00296592 8.43175 -0.00296592 9.97784 -0.000440743ZM9.95684 0.842852C8.43726 0.842852 6.91733 0.845263 5.39741 0.840442C5.28822 0.824028 5.17685 0.849462 5.08561 0.911651C4.99437 0.973841 4.92999 1.0682 4.90534 1.17583C4.69618 2.03158 4.23425 2.80456 3.57968 3.39414C2.92512 3.98373 2.10824 4.36262 1.23535 4.48151C0.944036 4.53489 0.846243 4.64921 0.844866 4.94637C0.842341 5.55242 0.842341 6.15857 0.844866 6.76484C0.847965 7.51138 0.810432 8.2617 0.870347 9.00307C1.01184 10.4924 1.42462 11.9432 2.08828 13.2839C3.75352 16.7738 6.45178 19.2379 9.81497 21.0388C9.86315 21.0673 9.91848 21.0813 9.97439 21.0792C10.0303 21.0771 10.0844 21.0591 10.1304 21.0271C12.038 20.0228 13.7716 18.7179 15.2645 17.1626C16.0592 16.3401 16.7213 15.3991 17.2273 14.3734C17.2961 14.2271 17.3034 14.1668 17.1047 14.1648C16.6032 14.1646 16.1048 14.0857 15.6278 13.9309C15.5856 13.9083 15.5391 13.8948 15.4914 13.8912C15.4436 13.8877 15.3957 13.8943 15.3506 13.9105C15.3056 13.9268 15.2644 13.9523 15.2299 13.9855C15.1954 14.0187 15.1682 14.0588 15.1502 14.1031C13.9355 15.9807 12.2125 17.4746 10.1817 18.4108C10.1327 18.4466 10.0753 18.4693 10.0151 18.4768C9.95485 18.4844 9.89369 18.4765 9.83735 18.4539C7.13358 17.1884 5.09439 15.2611 3.90228 12.4923C3.47261 11.5662 3.22177 10.5673 3.16298 9.54816C3.13887 8.78475 3.16022 8.01963 3.16298 7.25553C3.12676 6.93621 3.21747 6.61545 3.41553 6.36238C3.6136 6.10931 3.90316 5.94419 4.22183 5.90261C4.58934 5.82564 4.9305 5.65432 5.21173 5.40551C5.49296 5.1567 5.70458 4.83898 5.82577 4.48358C6.10469 3.74118 6.42837 3.50944 7.22449 3.50944C8.98063 3.50944 10.7368 3.50703 12.4953 3.51288C12.5852 3.51795 12.6751 3.50339 12.7587 3.47021C12.8424 3.43703 12.9179 3.38602 12.9798 3.32074C13.4772 2.83489 14.0549 2.43879 14.6874 2.14997C14.8751 2.06079 15.1736 2.05115 15.2301 1.88483C15.2866 1.71851 15.1333 1.49194 15.0689 1.29187C14.9488 0.918952 14.8406 0.84423 14.4353 0.84423H9.95684M12.0725 4.37614C12.0349 4.36666 11.9967 4.35976 11.9582 4.35548C10.3248 4.35548 8.6915 4.35445 7.05817 4.35238C6.96126 4.34856 6.86621 4.37971 6.79035 4.44014C6.71449 4.50057 6.66289 4.58626 6.64496 4.68158C6.48531 5.19627 6.19005 5.65849 5.79016 6.01972C5.39028 6.38095 4.90052 6.62786 4.3723 6.73454C4.31779 6.73998 4.26491 6.75621 4.21673 6.78227C4.16854 6.80834 4.12602 6.84372 4.09164 6.88637C4.05726 6.92902 4.0317 6.97808 4.01645 7.0307C4.00121 7.08331 3.99657 7.13844 4.00282 7.19286C4.00971 7.74587 4.02142 8.29992 4.00282 8.85224C3.97055 10.3888 4.38052 11.9022 5.18392 13.2123C6.28075 15.0372 7.86197 16.5224 9.75196 17.5028C9.81608 17.5448 9.89105 17.5671 9.96769 17.5671C10.0443 17.5671 10.1193 17.5448 10.1834 17.5028C11.8587 16.6143 13.2952 15.3349 14.371 13.7732C14.5046 13.5807 14.5087 13.4978 14.2811 13.3759C13.0932 12.727 12.1471 11.7112 11.5843 10.4802C11.0214 9.2492 10.8719 7.86913 11.1582 6.54619C11.3308 5.77426 11.6403 5.03952 12.0721 4.37683M17.3085 2.44439C14.4798 2.45024 11.9272 4.43262 11.8697 7.91942C11.8718 8.63285 12.0146 9.33885 12.2899 9.99701C12.5653 10.6552 12.9677 11.2526 13.4742 11.755C13.9807 12.2574 14.5814 12.655 15.2417 12.925C15.9021 13.1949 16.6092 13.332 17.3227 13.3283C20.3143 13.3256 22.8235 10.866 22.7626 7.90461C22.6903 4.37649 20.1032 2.44439 17.3085 2.44439Z" fill="white"/>
<path d="M17.3179 11.8948C16.3875 11.8919 15.4868 11.5669 14.769 10.975C14.0511 10.3832 13.5603 9.56106 13.38 8.6483C13.2756 8.13265 13.2744 7.60142 13.3764 7.08529C13.4785 6.56917 13.6818 6.07837 13.9745 5.64125C14.2673 5.20413 14.6438 4.82935 15.0823 4.53855C15.5207 4.24775 16.0124 4.0467 16.529 3.947C17.0745 3.82245 17.6407 3.81977 18.1874 3.93917C18.734 4.05857 19.2476 4.2971 19.6915 4.63775C19.9965 4.86502 20.0585 5.10365 19.885 5.32368C19.7218 5.53029 19.4838 5.52753 19.1884 5.3161C18.7989 5.02962 18.349 4.83609 17.8731 4.75033C17.3973 4.66458 16.9082 4.68888 16.4432 4.82137C15.9782 4.95387 15.5497 5.19104 15.1905 5.51472C14.8313 5.8384 14.551 6.24 14.371 6.68875C14.191 7.1375 14.1162 7.6215 14.1521 8.10366C14.1881 8.58582 14.3339 9.05335 14.5785 9.47044C14.823 9.88753 15.1598 10.2431 15.563 10.5099C15.9662 10.7768 16.4252 10.9477 16.9047 11.0098C17.3134 11.0727 17.7306 11.051 18.1306 10.9461C18.5306 10.8412 18.9048 10.6553 19.23 10.4C19.2701 10.3531 19.3199 10.3155 19.3759 10.2897C19.4319 10.2639 19.4928 10.2505 19.5545 10.2504C19.6162 10.2504 19.6771 10.2636 19.7332 10.2893C19.7893 10.3151 19.8391 10.3526 19.8793 10.3994C19.9195 10.4461 19.9491 10.501 19.9661 10.5603C19.983 10.6196 19.987 10.6819 19.9777 10.7428C19.9683 10.8038 19.9459 10.862 19.912 10.9135C19.878 10.965 19.8333 11.0085 19.781 11.0411C19.3092 11.4247 18.7477 11.6822 18.1491 11.7894C17.8788 11.8674 17.5978 11.9023 17.3165 11.8927" fill="white"/>
</g>
</g>
<defs>
<clipPath id="clip0_17012_5432">
<rect width="23.6201" height="22" fill="white"/>
</clipPath>
</defs>
</svg>
