<svg width="24" height="20" viewBox="0 0 24 20" fill="none" xmlns="http://www.w3.org/2000/svg">
<g clip-path="url(#clip0_17009_5148)">
<mask id="mask0_17009_5148" style="mask-type:luminance" maskUnits="userSpaceOnUse" x="0" y="0" width="24" height="20">
<path d="M23.1611 0H0V20H23.1611V0Z" fill="white"/>
</mask>
<g mask="url(#mask0_17009_5148)">
<path d="M23.1583 8.86925C23.1011 9.05574 23.0295 9.23755 22.9443 9.41306C22.8288 9.6082 22.6737 9.77701 22.4891 9.90863C22.3044 10.0402 22.0942 10.1318 21.8721 10.1773C19.2213 10.7674 16.5696 11.3559 13.9171 11.943C13.7354 11.983 13.6743 12.0508 13.681 12.2396C13.6967 12.6762 13.6887 13.1138 13.6852 13.5511C13.6814 14.0367 13.5109 14.2082 13.0342 14.2088C12.062 14.2103 11.0897 14.2103 10.1175 14.2088C9.65301 14.2088 9.47996 14.0357 9.47484 13.5655C9.47004 13.1209 9.46524 12.6759 9.47804 12.2316C9.48283 12.0569 9.43261 11.9846 9.25699 11.9459C6.60342 11.3614 3.95134 10.7725 1.30075 10.1792C0.925901 10.1103 0.588332 9.9089 0.349707 9.61172C0.111082 9.31454 -0.0126714 8.94144 0.00105115 8.56056C-0.00300076 7.49789 -0.00300076 6.43512 0.00105115 5.37224C-0.0165854 5.15101 0.0129583 4.92856 0.0877274 4.7196C0.162496 4.51064 0.280786 4.31995 0.43477 4.16013C0.588754 4.00031 0.774921 3.87501 0.980953 3.79252C1.18699 3.71003 1.40819 3.67224 1.62992 3.68163C1.69006 3.67908 1.75052 3.68163 1.81065 3.68163C8.33785 3.68163 14.8649 3.68163 21.3919 3.68163C21.6708 3.65829 21.9511 3.70502 22.2073 3.8176C22.4635 3.93017 22.6875 4.10501 22.8589 4.32621C22.9948 4.54268 23.0964 4.77889 23.1599 5.02644L23.1583 8.86925ZM11.6034 4.7395C8.30938 4.7395 5.0155 4.7395 1.72173 4.7395C1.22366 4.7395 1.04996 4.90904 1.04996 5.39975C1.04783 6.43234 1.04783 7.46494 1.04996 8.49754C1.04996 8.93419 1.18144 9.09157 1.60465 9.18626C4.13112 9.75096 6.65748 10.3161 9.18374 10.8817C9.46908 10.9456 9.46876 10.9476 9.47388 10.6529C9.48251 10.1705 9.65174 10.0007 10.1319 10C11.0815 9.99877 12.0313 9.99877 12.9811 10C13.5249 10 13.6913 10.1555 13.681 10.6964C13.6772 10.9079 13.7287 10.9444 13.9318 10.8983C16.4564 10.3257 18.982 9.75768 21.5087 9.19425C21.9984 9.08453 22.1101 8.94794 22.1104 8.45403C22.1104 7.45172 22.1104 6.44941 22.1104 5.44709C22.1099 5.34194 22.1002 5.23704 22.0813 5.1336C22.0676 5.03151 22.0185 4.93748 21.9424 4.86799C21.8664 4.79851 21.7683 4.758 21.6654 4.75358C21.5606 4.74261 21.4551 4.73812 21.3497 4.74014C18.1011 4.74014 14.8525 4.74014 11.6037 4.74014M11.5605 13.1618C11.8618 13.1618 12.1632 13.1564 12.4642 13.1644C12.5941 13.1679 12.6321 13.1225 12.6312 12.9961C12.626 12.4011 12.626 11.8061 12.6312 11.2111C12.6312 11.0777 12.5797 11.047 12.4578 11.048C11.8705 11.0527 11.2831 11.0527 10.6955 11.048C10.5653 11.048 10.5276 11.0918 10.5285 11.2179C10.5335 11.8129 10.5335 12.4078 10.5285 13.0028C10.5285 13.1369 10.5807 13.1673 10.7019 13.1644C10.9879 13.1577 11.2742 13.1621 11.5605 13.1621" fill="white"/>
<path d="M11.5866 19.9997C8.45876 19.9997 5.3308 19.9997 2.20272 19.9997C1.88808 20.0216 1.57419 19.9478 1.30231 19.7879C1.03042 19.628 0.813279 19.3896 0.67942 19.104C0.56955 18.8635 0.517931 18.6005 0.528753 18.3363C0.528753 16.1204 0.528753 13.9044 0.528753 11.6884C0.528753 11.2118 0.784663 10.9847 1.19668 11.0806C1.27826 11.0964 1.35378 11.1348 1.41467 11.1913C1.47557 11.2479 1.5194 11.3203 1.5412 11.4005C1.57274 11.5171 1.58581 11.6379 1.5799 11.7585C1.5799 13.9216 1.5799 16.0847 1.5799 18.248C1.5799 18.7867 1.74273 18.9518 2.2779 18.9518H20.888C21.4113 18.9518 21.578 18.7848 21.578 18.2631C21.578 16.1 21.578 13.9368 21.578 11.7735C21.576 11.6683 21.5847 11.5632 21.6039 11.4597C21.6306 11.3406 21.6987 11.235 21.7961 11.1615C21.8935 11.088 22.0138 11.0515 22.1356 11.0585C22.2574 11.0655 22.3728 11.1155 22.4611 11.1996C22.5495 11.2838 22.605 11.3966 22.6179 11.5179C22.6252 11.5853 22.6286 11.653 22.6282 11.7207C22.6282 13.9141 22.6288 16.1075 22.6301 18.3008C22.6556 18.6186 22.5839 18.9367 22.4245 19.2129C22.265 19.489 22.0253 19.7101 21.7373 19.8468C21.4745 19.9631 21.1881 20.0159 20.9011 20.001C17.7959 19.9993 14.6905 19.9993 11.585 20.001" fill="white"/>
<path d="M11.5856 0.000265459C12.4221 0.000265459 13.2586 0.000265459 14.0951 0.000265459C15.1473 0.00282456 15.7851 0.64004 15.7905 1.68799C15.7905 1.83866 15.7973 1.99029 15.7845 2.13999C15.7759 2.27188 15.7174 2.39553 15.6208 2.48572C15.5242 2.5759 15.3968 2.62582 15.2646 2.62529C15.1325 2.62476 15.0055 2.57382 14.9096 2.48286C14.8137 2.3919 14.7562 2.26778 14.7487 2.13583C14.7381 1.99348 14.7442 1.84953 14.7429 1.70654C14.7384 1.23279 14.5587 1.0495 14.0859 1.04854C13.046 1.0464 12.0061 1.0464 10.966 1.04854C10.3406 1.04854 9.71492 1.04854 9.08954 1.04854C8.60299 1.04854 8.42514 1.23055 8.42034 1.71742C8.42533 1.88298 8.41988 2.04869 8.40403 2.21357C8.38806 2.32725 8.33154 2.43132 8.24489 2.50663C8.15825 2.58193 8.04731 2.62338 7.93251 2.62334C7.81893 2.64155 7.70264 2.61681 7.6063 2.55394C7.50997 2.49108 7.44049 2.3946 7.41142 2.2833C7.30106 1.55524 7.33688 0.807341 7.99201 0.314715C8.29317 0.0966186 8.6588 -0.0141083 9.03036 0.000265459C9.8819 0.00314445 10.7334 0.000265459 11.585 0.000265459" fill="white"/>
</g>
</g>
<defs>
<clipPath id="clip0_17009_5148">
<rect width="23.1611" height="20" fill="white"/>
</clipPath>
</defs>
</svg>
