<svg width="37" height="37" viewBox="0 0 37 37" fill="none" xmlns="http://www.w3.org/2000/svg">
<mask id="mask0_11161_318" style="mask-type:luminance" maskUnits="userSpaceOnUse" x="0" y="0" width="37" height="37">
<path d="M37 0H0V37H37V0Z" fill="white"/>
</mask>
<g mask="url(#mask0_11161_318)">
<path d="M18.8618 36.9989C15.1972 37.0723 11.5932 36.0566 8.50676 34.0805C5.42028 32.1043 2.99023 29.2567 1.52462 25.8985C0.0590085 22.5404 -0.376178 18.8229 0.274219 15.2172C0.924616 11.6116 2.63131 8.28008 5.17799 5.64505C7.72467 3.01001 10.9967 1.19006 14.5793 0.415857C18.1619 -0.358345 21.8938 -0.0519374 25.302 1.29624C28.7102 2.64443 31.6412 4.97368 33.7236 7.98878C35.8059 11.0039 36.9459 14.5691 36.999 18.2325C37.0617 23.1189 35.1911 27.8323 31.7944 31.3469C28.3976 34.8615 23.7496 36.8929 18.8618 36.9989ZM35.7714 18.5448C35.7756 15.1344 34.7676 11.7994 32.8751 8.96181C30.9826 6.12418 28.2905 3.91143 25.1396 2.60351C21.9886 1.2956 18.5203 0.951292 15.1736 1.61416C11.8268 2.27703 8.75194 3.91729 6.33801 6.3274C3.92409 8.73751 2.27959 11.8092 1.61259 15.1537C0.945578 18.4983 1.28604 21.9655 2.59089 25.1166C3.89574 28.2677 6.10634 30.9611 8.943 32.8561C11.7797 34.7511 15.1149 35.7624 18.5267 35.7622C23.0969 35.7622 27.4801 33.9489 30.7135 30.7205C33.947 27.4922 35.7661 23.1129 35.7714 18.5448Z" fill="#EBA900"/>
<path d="M24.0718 16.8791C24.4432 15.8624 24.7772 14.947 25.1117 14.0323C25.1724 13.7009 25.361 13.4067 25.6368 13.213C25.9125 13.0193 26.2534 12.9417 26.5859 12.9968C27.3683 12.9968 28.1514 12.9917 28.9338 12.9968C29.106 12.9837 29.2789 13.0075 29.4411 13.0667C29.6033 13.1258 29.751 13.219 29.8742 13.3398C29.9974 13.4607 30.0934 13.6065 30.1556 13.7675C30.2179 13.9285 30.245 14.1009 30.2351 14.2732C30.2453 17.1088 30.2453 19.9445 30.2351 22.7801C30.244 22.9525 30.2165 23.1248 30.1546 23.2859C30.0926 23.447 29.9974 23.5933 29.8753 23.7152C29.7532 23.8372 29.6067 23.9322 29.4455 23.994C29.2843 24.0558 29.1119 24.0831 28.9395 24.0741C28.5726 24.0826 28.2058 24.082 27.8389 24.0741C27.6638 24.0824 27.4888 24.0537 27.3255 23.9898C27.1622 23.926 27.0142 23.8285 26.8911 23.7036C26.7681 23.5787 26.6727 23.4293 26.6114 23.2651C26.55 23.1009 26.5239 22.9256 26.5349 22.7507C26.5258 21.9816 26.5349 21.2125 26.5349 20.4191C26.405 20.4661 26.3999 20.5664 26.371 20.6458C26.0875 21.4245 25.804 22.2055 25.5154 22.983C25.426 23.2985 25.2356 23.5759 24.9732 23.7727C24.7108 23.9694 24.3911 24.0746 24.0631 24.0721C23.7351 24.0696 23.417 23.9595 23.1577 23.7588C22.8984 23.558 22.7122 23.2777 22.6277 22.9609C22.3532 22.2168 22.0885 21.4693 21.8112 20.7262C21.7675 20.6089 21.7653 20.4627 21.6082 20.3612C21.6082 21.1649 21.6082 21.9419 21.6082 22.7195C21.6255 22.9003 21.6029 23.0828 21.542 23.2539C21.481 23.4251 21.3832 23.5808 21.2555 23.71C21.1278 23.8392 20.9732 23.9389 20.8028 24.0019C20.6323 24.0649 20.4501 24.0897 20.269 24.0746C19.9021 24.0792 19.5347 24.086 19.1684 24.0746C19.0024 24.0784 18.8374 24.0481 18.6835 23.9857C18.5297 23.9233 18.3903 23.83 18.2739 23.7116C18.1575 23.5932 18.0665 23.4523 18.0067 23.2975C17.9469 23.1426 17.9195 22.9772 17.9261 22.8113C17.9205 19.9511 17.9205 17.0909 17.9261 14.2307C17.9193 14.0678 17.9462 13.9053 18.0053 13.7533C18.0643 13.6013 18.1542 13.4632 18.2692 13.3477C18.3842 13.2321 18.522 13.1416 18.6737 13.0818C18.8254 13.022 18.9879 12.9942 19.1508 13.0002C20.0189 12.9878 20.887 12.9906 21.7556 13.0002C22.0339 12.9857 22.3088 13.0674 22.5339 13.2316C22.759 13.3959 22.9207 13.6326 22.9917 13.9019C23.3466 14.8654 23.6936 15.8289 24.0764 16.8791M29.0092 18.559C29.0092 17.2265 29.0007 15.8952 29.016 14.5622C29.0194 14.2788 28.9327 14.2091 28.6645 14.2159C28.017 14.2329 27.3678 14.2369 26.7203 14.2159C26.6084 14.1976 26.4938 14.2238 26.401 14.289C26.3083 14.3541 26.2447 14.453 26.2241 14.5645C25.732 15.9564 25.2171 17.3416 24.7199 18.7301C24.6065 19.043 24.4455 19.2929 24.0883 19.2969C23.7101 19.3025 23.5473 19.0413 23.4305 18.7154C22.9282 17.3138 22.4099 15.919 21.9104 14.5163C21.8936 14.4222 21.8408 14.3384 21.7633 14.2825C21.6857 14.2267 21.5894 14.2032 21.4948 14.2171C20.8473 14.2318 20.1981 14.2414 19.5511 14.2142C19.2183 14.2001 19.1457 14.3111 19.1474 14.6274C19.1599 17.0843 19.1542 19.5412 19.1542 21.998C19.1542 22.8482 19.1542 22.8363 20.0189 22.8482C20.3132 22.8533 20.3841 22.7626 20.3824 22.4792C20.3705 20.6458 20.3756 18.8123 20.3784 16.9789C20.3731 16.8206 20.3872 16.6622 20.4204 16.5073C20.4455 16.3925 20.5073 16.289 20.5965 16.2124C20.6857 16.1358 20.7974 16.0903 20.9148 16.0828C21.0303 16.0609 21.1497 16.0755 21.2566 16.1244C21.3634 16.1733 21.4524 16.2543 21.5113 16.356C21.576 16.4735 21.6289 16.5971 21.6694 16.7249C22.3551 18.6051 23.0403 20.4854 23.7248 22.3659C23.7929 22.5523 23.807 22.8136 24.0837 22.8074C24.3604 22.8011 24.3672 22.5359 24.437 22.354C24.5787 21.9901 24.704 21.62 24.8378 21.2533C25.3973 19.717 25.9563 18.1806 26.515 16.6439C26.5397 16.5304 26.5899 16.4239 26.6617 16.3325C26.7334 16.2411 26.825 16.1672 26.9295 16.1163C27.3644 15.9462 27.7664 16.2568 27.7681 16.7765C27.7726 18.5 27.7681 20.2235 27.7681 21.947C27.7681 22.8538 27.7681 22.8459 28.6877 22.8493C28.9474 22.8493 29.0149 22.7745 29.0126 22.52C29.0002 21.2 29.007 19.8801 29.007 18.5595" fill="#EBA900"/>
<path d="M18.5394 3.76159C21.5169 3.75703 24.4254 4.65779 26.8788 6.34429C27.0057 6.40633 27.1102 6.50609 27.1781 6.62988C27.246 6.75368 27.274 6.89544 27.2581 7.03573C27.2422 7.14607 27.1964 7.24995 27.1257 7.33612C27.055 7.42229 26.962 7.48745 26.8568 7.52454C26.7516 7.56162 26.6383 7.56921 26.5291 7.54649C26.42 7.52376 26.3191 7.47158 26.2375 7.39562C25.29 6.74602 24.266 6.21551 23.1887 5.81608C21.3269 5.1325 19.3375 4.86634 17.3613 5.03644C15.3851 5.20653 13.4705 5.80872 11.7529 6.80039C10.0354 7.79206 8.55687 9.14896 7.42207 10.7751C6.28727 12.4012 5.5239 14.2567 5.186 16.2104C4.56155 19.6185 5.29865 23.1356 7.2391 26.0067C7.2992 26.0985 7.36611 26.1869 7.42111 26.2816C7.46893 26.349 7.50285 26.4253 7.5209 26.506C7.53896 26.5866 7.54078 26.6701 7.52627 26.7515C7.51176 26.8328 7.48121 26.9105 7.43639 26.98C7.39156 27.0494 7.33337 27.1093 7.26518 27.1561C7.1962 27.2022 7.11853 27.2338 7.03693 27.249C6.95532 27.2641 6.87148 27.2625 6.79052 27.2442C6.70956 27.2259 6.63318 27.1913 6.56603 27.1426C6.49888 27.0938 6.44237 27.0319 6.39995 26.9606C5.89236 26.2421 5.45436 25.4769 5.09188 24.6754C4.19595 22.7201 3.73806 20.5928 3.75024 18.4423C3.76241 16.2917 4.24435 14.1697 5.16236 12.2247C6.08037 10.2797 7.4123 8.55851 9.06504 7.18158C10.7178 5.80465 12.6514 4.80516 14.7308 4.25297C15.9708 3.91498 17.2514 3.74963 18.5365 3.76159" fill="#EBA900"/>
<path d="M33.308 18.5283C33.3099 22.0196 32.0738 25.3987 29.8193 28.0653C27.5647 30.732 24.4376 32.5136 20.9934 33.0938C17.2135 33.756 13.325 32.8982 10.175 30.7072C9.77814 30.4403 9.68119 30.1014 9.89835 29.7823C10.1155 29.4632 10.4653 29.4315 10.8622 29.6905C10.8929 29.7103 10.9229 29.7313 10.9535 29.7517C13.5578 31.5143 16.6949 32.3153 19.8258 32.0172C22.9568 31.7192 25.8862 30.3406 28.1108 28.1183C30.3354 25.8961 31.7165 22.9688 32.0166 19.8394C32.3168 16.71 31.5174 13.5738 29.7557 10.9694C29.7155 10.9082 29.673 10.8482 29.6367 10.7847C29.5872 10.7182 29.5518 10.6422 29.5327 10.5615C29.5137 10.4808 29.5113 10.3971 29.5258 10.3154C29.5403 10.2338 29.5713 10.156 29.617 10.0868C29.6627 10.0176 29.7221 9.95845 29.7915 9.91302C29.8595 9.86507 29.9367 9.8318 30.0183 9.81533C30.0998 9.79886 30.184 9.79955 30.2652 9.81735C30.3465 9.83516 30.4232 9.8697 30.4904 9.91876C30.5576 9.96782 30.6139 10.0303 30.6556 10.1023C31.1617 10.8219 31.5996 11.5871 31.9636 12.388C32.8477 14.3152 33.3055 16.4104 33.3057 18.5305" fill="#EBA900"/>
<path d="M11.7833 12.9979C12.9564 12.9979 14.1295 12.9979 15.3026 12.9979C15.4893 12.9745 15.6788 12.9939 15.8567 13.0548C16.0347 13.1157 16.1964 13.2164 16.3295 13.3493C16.4626 13.4821 16.5636 13.6436 16.6248 13.8214C16.686 13.9991 16.7058 14.1885 16.6827 14.3751C16.6827 14.7152 16.6867 15.0592 16.6827 15.4009C16.6904 15.5725 16.6619 15.7438 16.5992 15.9038C16.5365 16.0637 16.4409 16.2087 16.3187 16.3294C16.1964 16.4501 16.0502 16.5439 15.8894 16.6046C15.7287 16.6653 15.557 16.6916 15.3854 16.6818C14.8967 16.6863 14.4073 16.6982 13.9197 16.6767C13.6561 16.6648 13.5965 16.7532 13.5982 17.0054C13.6084 18.8865 13.6045 20.767 13.6033 22.648C13.6305 22.8407 13.6128 23.037 13.5517 23.2216C13.4905 23.4063 13.3875 23.5744 13.2507 23.7128C13.1139 23.8512 12.947 23.9561 12.763 24.0194C12.579 24.0828 12.3828 24.1028 12.1898 24.078C11.8598 24.078 11.5298 24.0848 11.1998 24.078C11.0279 24.0867 10.856 24.059 10.6955 23.9967C10.535 23.9344 10.3894 23.8389 10.2684 23.7165C10.1474 23.5941 10.0536 23.4475 9.99317 23.2863C9.93276 23.1251 9.9071 22.953 9.91786 22.7812C9.91106 20.8758 9.90879 18.9704 9.92239 17.0649C9.92239 16.7651 9.85209 16.6608 9.54194 16.6773C9.05432 16.7028 8.56444 16.6909 8.07625 16.6824C7.9138 16.6864 7.75221 16.6575 7.60116 16.5976C7.45012 16.5377 7.31273 16.4479 7.19721 16.3337C7.0817 16.2194 6.99044 16.0831 6.9289 15.9327C6.86736 15.7824 6.8368 15.6212 6.83906 15.4588C6.82886 15.0558 6.83056 14.6528 6.83906 14.2499C6.83099 14.0843 6.85761 13.9188 6.91723 13.7641C6.97684 13.6094 7.06813 13.4689 7.18525 13.3515C7.30236 13.2341 7.44272 13.1425 7.59733 13.0825C7.75193 13.0225 7.91738 12.9954 8.08306 13.003C9.31684 12.9928 10.5512 13.0002 11.7855 12.9996M11.7674 14.2232H8.97778C8.01842 14.2232 8.02749 14.2232 8.05414 15.1731C8.06094 15.4123 8.15223 15.4565 8.36088 15.4508C8.99649 15.4406 9.63209 15.4463 10.2677 15.4474C10.9481 15.4474 11.1369 15.6373 11.138 16.3202C11.138 18.2139 11.138 20.1077 11.138 22.0014C11.138 22.8464 11.138 22.83 11.9676 22.8515C12.2879 22.86 12.3758 22.7795 12.3735 22.4519C12.3571 20.4241 12.365 18.3957 12.3656 16.3678C12.3656 15.6225 12.5448 15.4474 13.3034 15.4469H14.5865C15.4563 15.4469 15.4444 15.4469 15.4523 14.5639C15.4523 14.285 15.3707 14.2136 15.1008 14.217C13.9889 14.2306 12.8765 14.2227 11.764 14.2227" fill="#EBA900"/>
</g>
</svg>
