<svg width="26" height="33" viewBox="0 0 26 33" fill="none" xmlns="http://www.w3.org/2000/svg">
<path d="M9.88344 20.0363H9.88937C9.89333 20.0363 9.89779 20.0363 9.90175 20.0363H9.90967C9.92055 20.0363 9.93094 20.0363 9.94183 20.0363C11.5286 20.0363 13.0504 19.409 14.1724 18.2925C15.2944 17.1759 15.9248 15.6616 15.9248 14.0825C15.9248 12.5035 15.2944 10.9892 14.1724 9.87261C13.0504 8.75607 11.5286 8.12881 9.94183 8.12881H9.92352C9.9161 8.12881 9.90867 8.12881 9.90125 8.12881C9.89383 8.12881 9.87255 8.12881 9.8582 8.12881C9.84384 8.12881 9.84187 8.12881 9.83345 8.12881C8.2637 8.15903 6.76887 8.80244 5.67178 9.92011C4.5747 11.0378 3.9634 12.54 3.9699 14.1024C3.9764 15.6647 4.60017 17.1619 5.70652 18.2704C6.81286 19.379 8.31299 20.0101 9.88294 20.0274L9.88344 20.0363ZM5.28938 16.1211H6.64884C6.96372 17.1492 7.51899 18.0884 8.26911 18.8617C7.61065 18.6317 7.00655 18.2698 6.49407 17.7985C5.98158 17.3271 5.57159 16.7563 5.28938 16.1211ZM15.0298 14.0848C15.0286 14.4698 14.9831 14.8535 14.8942 15.2283H13.3635C13.4283 14.8467 13.4614 14.4604 13.4625 14.0734C13.4616 13.6939 13.4295 13.3151 13.3665 12.9407H14.8947C14.9834 13.3157 15.0288 13.6995 15.0298 14.0848ZM12.5657 14.0961C12.5656 14.4762 12.5295 14.8554 12.4578 15.2288H10.3912V12.9422H12.4559C12.529 13.3227 12.5658 13.7092 12.5657 14.0966V14.0961ZM7.59556 16.1211H9.49495V18.7632C8.62691 18.0747 7.96912 17.1589 7.59556 16.1187V16.1211ZM10.3912 18.6967V16.1211H12.2114C11.8485 17.127 11.2197 18.0168 10.3912 18.6967ZM10.3912 12.0484V9.47424C11.2194 10.1543 11.8476 11.0444 12.2094 12.0504L10.3912 12.0484ZM9.49495 9.40628V12.0513H7.59309C7.9676 11.0109 8.62621 10.0949 9.49495 9.40628ZM9.49495 12.9432V15.2302H7.34861C7.27546 14.8496 7.23868 14.4629 7.23875 14.0754C7.23886 13.6953 7.27499 13.3161 7.34663 12.9427L9.49495 12.9432ZM6.43802 15.2293H4.99244C4.81137 14.4776 4.81137 13.6939 4.99244 12.9422H6.44148C6.37676 13.3237 6.34366 13.7097 6.3425 14.0966C6.34327 14.4761 6.37522 14.8549 6.43802 15.2293ZM11.4859 18.908C12.2597 18.1266 12.8319 17.1704 13.1537 16.1211H14.5968C14.3054 16.7779 13.8775 17.3658 13.3413 17.8461C12.8051 18.3265 12.1728 18.6884 11.4859 18.908ZM14.5973 12.0504H13.1561C12.8335 11.0009 12.2605 10.0447 11.4859 9.26346C12.1728 9.48307 12.8051 9.84496 13.3413 10.3253C13.8775 10.8057 14.3059 11.3936 14.5973 12.0504ZM8.26911 9.31123C7.51951 10.0843 6.96474 11.0232 6.65032 12.0508H5.28938C5.57167 11.4159 5.98171 10.8452 6.49419 10.374C7.00667 9.90284 7.61073 9.54114 8.26911 9.31123ZM25.7179 5.85507C25.5685 5.56395 25.3625 5.30523 25.1119 5.09389C24.8613 4.88255 24.5711 4.7228 24.258 4.62389L10.0799 0.118765C9.44803 -0.0802722 8.76267 -0.0222346 8.17369 0.280187C7.5847 0.582609 7.14001 1.10481 6.93686 1.73259L5.99657 4.66526H2.50117C1.83806 4.66604 1.20233 4.92852 0.733444 5.39512C0.264554 5.86172 0.000785832 6.49434 0 7.15421V30.5116C0.000786076 31.1714 0.26457 31.804 0.733474 32.2705C1.20238 32.7371 1.83811 32.9994 2.50117 33.0001H17.3855C18.0485 32.9994 18.6843 32.7371 19.1532 32.2705C19.6221 31.804 19.8858 31.1714 19.8866 30.5116V26.4349L25.8807 7.75158C25.9811 7.44043 26.0185 7.11257 25.9908 6.78695C25.963 6.46133 25.8706 6.14442 25.7189 5.85458L25.7179 5.85507ZM18.9874 30.5121C18.987 30.9351 18.8182 31.3406 18.518 31.6399C18.2177 31.9393 17.8105 32.108 17.3855 32.1092H2.50117C2.07538 32.1091 1.66706 31.9407 1.36594 31.6412C1.06481 31.3416 0.895516 30.9353 0.895254 30.5116V7.15421C0.895778 6.7308 1.06504 6.32487 1.36591 6.02548C1.66677 5.72608 2.07469 5.55765 2.50018 5.55712H17.3855C17.811 5.55765 18.2189 5.72608 18.5197 6.02548C18.8206 6.32487 18.9899 6.7308 18.9904 7.15421L18.9874 30.5121ZM25.0251 7.48072L19.8861 23.5033V7.15322C19.8854 6.49335 19.6216 5.86073 19.1527 5.39413C18.6838 4.92754 18.0481 4.66506 17.385 4.66427H6.93637L7.79055 2.00493C7.92155 1.60263 8.20704 1.26817 8.5848 1.07445C8.96256 0.880725 9.40196 0.843448 9.80722 0.97074L23.9863 5.47587C24.3905 5.60634 24.7265 5.89046 24.9212 6.26633C25.1158 6.64221 25.1533 7.0794 25.0256 7.48269L25.0251 7.48072ZM15.9894 23.487C15.9894 23.6053 15.9421 23.7188 15.8581 23.8025C15.774 23.8862 15.6599 23.9332 15.541 23.9332H4.34612C4.22985 23.9293 4.11963 23.8807 4.03874 23.7975C3.95786 23.7143 3.91264 23.603 3.91264 23.4873C3.91264 23.3715 3.95786 23.2603 4.03874 23.177C4.11963 23.0938 4.22985 23.0452 4.34612 23.0413H15.54C15.599 23.0411 15.6574 23.0525 15.7119 23.0748C15.7664 23.0971 15.8159 23.1299 15.8577 23.1713C15.8994 23.2127 15.9325 23.2619 15.9551 23.3161C15.9777 23.3703 15.9894 23.4284 15.9894 23.487ZM15.9894 26.6349C15.9894 26.7532 15.9421 26.8667 15.8581 26.9504C15.774 27.0341 15.6599 27.0811 15.541 27.0811H4.34612C4.22985 27.0772 4.11963 27.0286 4.03874 26.9453C3.95786 26.8621 3.91264 26.7509 3.91264 26.6351C3.91264 26.5194 3.95786 26.4081 4.03874 26.3249C4.11963 26.2417 4.22985 26.193 4.34612 26.1892H15.54C15.5989 26.1891 15.6573 26.2005 15.7118 26.2228C15.7663 26.2452 15.8158 26.278 15.8575 26.3194C15.8993 26.3608 15.9324 26.4099 15.955 26.4641C15.9776 26.5182 15.9893 26.5763 15.9894 26.6349ZM13.4506 29.7828C13.4506 29.9011 13.4034 30.0146 13.3193 30.0983C13.2352 30.1819 13.1211 30.2289 13.0022 30.2289H6.88341C6.82331 30.2309 6.76342 30.2209 6.70731 30.1994C6.6512 30.1778 6.60001 30.1453 6.55679 30.1037C6.51356 30.0621 6.47919 30.0123 6.45572 29.9572C6.43225 29.9021 6.42015 29.8429 6.42015 29.783C6.42015 29.7232 6.43225 29.6639 6.45572 29.6088C6.47919 29.5538 6.51356 29.5039 6.55679 29.4623C6.60001 29.4207 6.6512 29.3882 6.70731 29.3667C6.76342 29.3452 6.82331 29.3351 6.88341 29.3371H13.0007C13.1196 29.3371 13.2335 29.384 13.3176 29.4676C13.4017 29.5512 13.449 29.6645 13.4491 29.7828H13.4506Z" fill="#EBA900"/>
</svg>
