<svg width="32" height="34" viewBox="0 0 32 34" fill="none" xmlns="http://www.w3.org/2000/svg">
<mask id="mask0_11161_394" style="mask-type:luminance" maskUnits="userSpaceOnUse" x="0" y="0" width="32" height="34">
<path d="M32 0H0V34H32V0Z" fill="white"/>
</mask>
<g mask="url(#mask0_11161_394)">
<path d="M25.4487 14.468L27.0574 13.1224C27.7427 12.5476 28.42 11.9637 29.1149 11.4006C29.3647 11.1981 29.6655 11.0674 29.9848 11.0227C30.3041 10.978 30.6297 11.021 30.9261 11.147C31.2225 11.2731 31.4785 11.4773 31.6663 11.7376C31.8541 11.9979 31.9666 12.3043 31.9914 12.6235C32.013 12.852 31.9871 13.0824 31.9154 13.3005C31.8438 13.5186 31.7278 13.7198 31.5747 13.8916C29.677 16.1246 27.7769 18.3569 25.8745 20.5886C25.8521 20.6146 25.8328 20.6518 25.8039 20.6624C25.3422 20.8329 25.3979 21.2154 25.399 21.591C25.4043 23.9668 25.4075 26.3425 25.3947 28.7177C25.3947 29.0094 25.4749 29.0864 25.7579 29.0689C26.1592 29.0439 26.5604 29.0588 26.9654 29.0636C27.3982 29.0694 27.6105 29.267 27.6073 29.6894C27.6497 30.2931 27.6172 30.8998 27.5105 31.4956C27.3311 32.217 26.9108 32.8567 26.318 33.3102C25.7253 33.7637 24.9953 34.0042 24.2472 33.9925C21.7627 34 19.2789 33.9925 16.7944 33.9925H3.26869C1.26842 34.0005 0 32.7345 0 30.7418C0 20.7709 0 10.8003 0 0.82977C0 0.146582 0.144978 0.000488281 0.821185 0.000488281H24.5938C25.2481 0.000488281 25.4011 0.15402 25.4011 0.809582C25.4011 5.22958 25.4011 9.64958 25.4011 14.0696C25.3794 14.2042 25.3951 14.3421 25.4466 14.4686M24.2948 21.5554C23.958 21.7704 23.608 21.9641 23.2468 22.1356C22.8003 22.28 22.4041 22.5469 22.1039 22.9054C21.8038 23.2639 21.6118 23.6995 21.5504 24.1617C21.5457 24.1841 21.5395 24.2061 21.5316 24.2276C21.5011 24.3444 21.4365 24.4496 21.3458 24.53C21.2552 24.6104 21.1426 24.6623 21.0223 24.6792C20.1434 24.8518 19.2665 25.0346 18.3871 25.2041C18.2893 25.2329 18.1854 25.2347 18.0867 25.2094C17.988 25.1841 17.898 25.1325 17.8265 25.0603C17.755 24.988 17.7047 24.8978 17.6809 24.7993C17.6572 24.7008 17.6609 24.5978 17.6916 24.5012C17.8612 23.639 18.0447 22.78 18.2132 21.9177C18.2221 21.7907 18.2733 21.6702 18.3587 21.5751C18.4441 21.4801 18.5589 21.416 18.685 21.3929C19.173 21.3278 19.6324 21.1262 20.0094 20.8118C20.3865 20.4973 20.6658 20.0829 20.8148 19.6169C20.8479 19.5324 20.9089 19.4575 20.9485 19.3773C21.6044 17.8983 22.6549 16.6256 23.9866 15.6968C24.0053 15.6841 24.0193 15.6639 24.0401 15.6527C24.1327 15.5976 24.2068 15.5166 24.2532 15.4198C24.2997 15.323 24.3164 15.2148 24.3012 15.1087C24.2941 10.5736 24.2941 6.0385 24.3012 1.50339C24.3012 1.18464 24.2381 1.08849 23.8957 1.08902C16.4299 1.10035 8.96402 1.10035 1.49793 1.08902C1.15394 1.08902 1.09295 1.18464 1.09349 1.50446C1.10276 10.552 1.10526 19.5995 1.10098 28.6471C1.10098 29.4355 1.09135 30.2238 1.10419 31.0117C1.10284 31.5199 1.30485 32.0078 1.66577 32.3681C2.0267 32.7284 2.51698 32.9316 3.02875 32.9329C3.54053 32.9343 4.03188 32.7337 4.39471 32.3753C4.75754 32.0168 4.96214 31.53 4.96349 31.0218C4.97312 30.6563 4.96349 30.2908 4.96616 29.9253C4.96616 29.198 5.09937 29.0646 5.8248 29.0646C11.8643 29.0646 17.9038 29.0669 23.9433 29.0716C24.2327 29.0716 24.3044 28.9982 24.3007 28.7146C24.2841 27.4693 24.2937 26.2241 24.2937 24.9793L24.2948 21.5554ZM5.37488 32.9019H24.0813C25.6129 32.9019 26.5165 31.9865 26.5112 30.4629C26.5112 30.2307 26.4609 30.1542 26.2116 30.1548C19.6 30.1619 12.9886 30.1619 6.37742 30.1548C6.09496 30.1548 6.05644 30.2568 6.07142 30.4905C6.16699 31.3544 5.91726 32.2211 5.37595 32.904M23.4554 17.5849C24.038 18.1618 24.6125 18.7185 25.17 19.2918C25.3305 19.4591 25.4097 19.4426 25.5541 19.2721C27.2396 17.2821 28.9296 15.2955 30.624 13.3126C30.9745 12.9014 31.0012 12.572 30.7166 12.2825C30.432 11.9929 30.0907 12.0094 29.6814 12.3526C28.3476 13.4714 27.0149 14.5913 25.6836 15.7122L23.4554 17.5849ZM24.4644 20.1694C24.4361 20.127 24.4052 20.0863 24.3718 20.0477C23.8775 19.5553 23.3805 19.066 22.8889 18.5714C22.776 18.4577 22.7203 18.5124 22.6594 18.6187C22.1779 19.4596 21.6964 20.3027 21.2058 21.1368C21.0774 21.3541 21.2481 21.4285 21.3551 21.5182C21.4749 21.6192 21.5327 21.863 21.7879 21.7159C22.6299 21.2292 23.4789 20.7538 24.3242 20.273C24.373 20.2403 24.4198 20.2048 24.4644 20.1667M19.0954 23.945C19.3195 23.8998 19.5437 23.8557 19.7668 23.8095C20.6227 23.6321 20.6168 23.6305 20.8469 22.8166C20.8655 22.7595 20.8678 22.6984 20.8535 22.6401C20.8393 22.5817 20.809 22.5285 20.7661 22.4862C20.4767 22.1201 20.1605 21.9246 19.7009 22.2046C19.6081 22.2487 19.5105 22.2818 19.4099 22.3034C19.3652 22.3114 19.324 22.3328 19.2917 22.3645C19.2594 22.3963 19.2376 22.437 19.2291 22.4814C19.1462 22.916 19.0574 23.3495 18.9696 23.7835C18.9493 23.8855 18.9418 23.9742 19.0948 23.9429" fill="#EBA900"/>
<path d="M8.25314 19.7435C8.29866 19.7361 8.3451 19.7361 8.39063 19.7435C8.97214 19.956 9.32523 19.6309 9.67457 19.2367C9.96185 18.911 10.2844 18.6151 10.5985 18.3134C10.6504 18.243 10.7184 18.1859 10.7969 18.1466C10.8753 18.1073 10.962 18.087 11.0499 18.0874C11.1377 18.0878 11.2242 18.1088 11.3024 18.1487C11.3805 18.1886 11.448 18.2463 11.4994 18.3171C12.0169 18.8207 12.529 19.3295 13.0358 19.8434C13.1063 19.8953 13.1635 19.9631 13.2027 20.0412C13.2418 20.1192 13.2619 20.2054 13.2611 20.2926C13.2604 20.3798 13.2389 20.4656 13.1985 20.543C13.158 20.6204 13.0997 20.6872 13.0283 20.738C12.5864 21.1869 12.1403 21.6326 11.6845 22.0661C11.6211 22.1217 11.5743 22.1935 11.5493 22.2737C11.5243 22.354 11.522 22.4395 11.5427 22.5209C11.6337 23.0314 11.5995 23.5562 11.4429 24.0508C11.2864 24.5454 11.0121 24.9952 10.6433 25.3622C10.2745 25.7292 9.82212 26.0026 9.32438 26.1591C8.82665 26.3156 8.29826 26.3507 7.78397 26.2614C7.69672 26.2414 7.60559 26.2457 7.52063 26.2738C7.43567 26.3019 7.36019 26.3528 7.30249 26.4208C6.88093 26.858 6.44653 27.2825 6.01213 27.7069C5.65638 28.0549 5.39477 28.0528 5.03634 27.7006C4.54595 27.2186 4.05787 26.7342 3.57212 26.2476C3.22278 25.897 3.22599 25.6367 3.58175 25.2791C4.00973 24.8488 4.4377 24.4164 4.87745 23.9983C4.94563 23.9397 4.99587 23.8633 5.02245 23.7777C5.04903 23.6921 5.05087 23.6009 5.02778 23.5143C4.94838 23.0488 4.97253 22.5717 5.09856 22.1164C5.22458 21.6612 5.44942 21.2388 5.75729 20.879C6.06516 20.5192 6.44859 20.2307 6.88068 20.0337C7.31277 19.8367 7.78305 19.736 8.25849 19.7387M11.8771 20.3173C11.8829 20.2168 11.8155 20.1802 11.7701 20.1334C11.6096 19.9698 11.4303 19.8221 11.2886 19.6452C11.112 19.4269 10.9938 19.4646 10.8071 19.65C8.98534 21.4722 7.15894 23.2898 5.3279 25.1028C5.11391 25.3184 4.72499 25.5118 4.73943 25.7705C4.75227 26.0468 5.15029 26.2248 5.35572 26.467C5.48732 26.6216 5.5756 26.5977 5.71041 26.4628C7.72155 24.4575 9.73662 22.4552 11.7556 20.4559C11.8032 20.4086 11.8466 20.3571 11.8824 20.3178M6.17049 22.6091L7.86796 20.9176C7.43798 20.9771 7.0394 21.1746 6.73295 21.48C6.4265 21.7854 6.22898 22.1819 6.17049 22.6091ZM10.4155 23.449L8.72231 25.1352C9.15066 25.0749 9.5476 24.8777 9.85308 24.5735C10.1586 24.2692 10.356 23.8745 10.4155 23.449Z" fill="#EBA900"/>
<path d="M11.8886 7.12824C14.0734 7.12824 16.2578 7.13356 18.4426 7.12134C18.7186 7.12134 18.7855 7.19784 18.7807 7.4624C18.7662 8.22474 18.7807 8.22474 18.0119 8.22474C13.7921 8.22474 9.57218 8.22722 5.3523 8.23218C5.03132 8.23218 4.95161 8.14718 4.96177 7.83906C4.98424 7.12824 4.9682 7.12824 5.67971 7.12824H11.8886Z" fill="#EBA900"/>
<path d="M8.79864 16.4508C7.08672 16.4508 5.3748 16.4465 3.65968 16.4555C3.41091 16.4555 3.29804 16.4237 3.30499 16.1309C3.32318 15.3542 3.30499 15.3537 4.09514 15.3537C7.39486 15.3537 10.694 15.359 13.9922 15.3452C14.3073 15.3452 14.3709 15.4329 14.3629 15.7245C14.3426 16.4497 14.357 16.4502 13.6257 16.4502H8.79864" fill="#EBA900"/>
<path d="M17.6888 26.8697C19.413 26.8697 21.1377 26.8766 22.862 26.8628C23.1412 26.8628 23.2027 26.9435 23.1985 27.2054C23.1851 27.9662 23.1985 27.9667 22.4286 27.9667C19.1177 27.9667 15.8067 27.9625 12.4958 27.9736C12.2026 27.9736 12.1341 27.8939 12.1411 27.614C12.1593 26.8702 12.1459 26.8702 12.8943 26.8702H17.6882" fill="#EBA900"/>
<path d="M13.2884 2.74189C14.4605 2.74189 15.6332 2.75092 16.8053 2.73499C17.0728 2.73127 17.1263 2.81202 17.1263 3.06064C17.1156 3.83839 17.1263 3.83839 16.3388 3.83839C14.132 3.83839 11.9253 3.83255 9.7185 3.8453C9.43818 3.8453 9.37826 3.76242 9.38307 3.50211C9.39645 2.74189 9.38308 2.74136 10.1529 2.74136H13.2905" fill="#EBA900"/>
<path d="M7.17819 10.9661C5.99429 10.9661 4.8104 10.9571 3.6265 10.973C3.35901 10.9767 3.30552 10.8949 3.30873 10.6468C3.31943 9.86961 3.30873 9.86961 4.09621 9.86961C6.2896 9.86961 8.48674 9.87386 10.6823 9.86377C10.9498 9.86377 11.0632 9.89883 11.0568 10.2064C11.0343 10.9661 11.0519 10.9666 10.2843 10.9666L7.17819 10.9661Z" fill="#EBA900"/>
<path d="M18.2226 10.9699C17.0275 10.9699 15.8318 10.964 14.6383 10.9746C14.4109 10.9746 14.3516 10.9104 14.3516 10.6883C14.3516 9.87283 14.3425 9.87283 15.169 9.87283C17.3624 9.87283 19.5595 9.87761 21.7551 9.86646C22.0279 9.86646 22.0996 9.93817 22.0942 10.2054C22.0793 10.9693 22.0942 10.9693 21.3271 10.9693H18.2242" fill="#EBA900"/>
<path d="M12.723 9.87061C13.2526 9.87061 13.2526 9.87061 13.2526 10.4157C13.2526 10.9607 13.2526 10.9671 12.6952 10.9671C12.1484 10.9671 12.1484 10.9671 12.1484 10.439C12.1484 9.87061 12.1484 9.87061 12.7235 9.87061" fill="#EBA900"/>
</g>
</svg>
